<svg width="901" height="710" viewBox="0 0 901 710" fill="none" xmlns="http://www.w3.org/2000/svg">
<path d="M103.405 618.814C103.405 618.814 93.1857 610.817 93.6314 612.594C94.077 614.371 94.077 617.925 94.077 617.925C94.077 617.925 98.5194 617.925 99.4079 619.259C100.296 620.593 102.073 622.37 100.739 622.813C99.4079 623.259 104.739 623.259 99.4079 623.259C94.077 623.259 92.7429 624.147 92.7429 624.147C92.7429 624.147 90.9659 623.702 92.7429 625.924C94.5199 628.147 95.854 629.478 95.854 629.478C98.0766 631.255 98.0766 631.255 98.0766 631.255L100.742 633.921L97.6337 635.698L101.631 637.032H105.184L102.962 640.586L104.739 641.92H127.839L131.393 639.254C131.393 639.254 135.836 639.7 137.17 639.254C138.504 638.809 151.831 630.812 151.831 630.812C151.831 630.812 170.047 633.478 171.824 632.146C173.601 630.812 189.151 612.6 189.151 611.266C189.151 609.932 188.705 591.719 188.705 589.942C188.705 588.165 189.151 576.615 189.151 576.615L190.039 570.838H194.481L198.035 567.727L202.478 565.062L206.92 563.285L208.697 557.065L201.589 551.734V546.403L198.478 537.961L196.256 533.073L189.148 532.628L177.597 535.293L179.374 529.962L172.267 531.296L169.155 533.519L167.821 528.631L158.491 529.077L152.714 537.073L147.826 539.738L147.381 542.849L154.046 547.292C154.046 547.292 158.488 548.626 154.491 549.957C150.492 551.291 145.161 552.623 145.161 552.623L144.715 555.734L138.496 557.956L135.83 556.18L130.054 558.845L128.277 551.737C128.277 551.737 124.723 550.849 122.057 550.849C119.392 550.849 114.504 550.849 114.504 550.849L116.726 554.403C116.726 554.403 112.727 553.957 112.284 555.737C111.841 557.516 111.396 558.848 111.396 558.848L112.73 561.07L116.284 561.959C116.284 561.959 119.395 562.847 119.838 564.624C120.28 566.401 121.172 568.624 121.172 568.624C121.172 568.624 115.841 570.401 114.064 571.735C112.287 573.069 109.621 575.289 109.621 575.289L111.398 579.288L112.287 582.842L115.841 581.508H119.395L121.172 586.396L130.056 587.285L130.502 591.727C130.502 591.727 129.168 590.393 127.391 591.727C125.614 593.061 123.391 593.504 123.391 593.504L120.726 593.059L116.726 603.278L113.172 604.166L110.061 605.5C110.061 605.5 112.727 607.277 114.504 607.277C116.281 607.277 125.611 606.832 125.611 606.832L130.054 608.166C130.054 608.166 130.054 611.277 126.054 611.277C122.055 611.277 116.724 611.277 116.724 611.277L112.724 609.943L108.724 612.165L103.405 618.814Z" fill="#569AEF"/>
<path d="M176.705 701.447L178.928 704.558L182.482 705.446L184.704 709.446L186.481 709.889L189.592 704.115C189.592 704.115 192.703 699.227 195.369 699.227C198.034 699.227 198.923 698.338 201.145 698.338C203.368 698.338 217.138 705.446 217.138 705.446L223.803 703.224L224.249 695.227C224.249 695.227 235.799 695.227 237.133 695.227C238.467 695.227 251.795 698.781 251.795 698.781L258.46 697.447C258.46 697.447 260.237 696.116 264.679 696.116C269.122 696.116 283.783 697.004 283.783 697.004L296.222 695.67C296.222 695.67 301.11 697.004 303.33 697.447C305.552 697.893 317.103 697.447 318.434 696.559C319.768 695.67 332.65 693.005 332.65 689.894C332.65 686.782 333.095 680.563 333.095 680.563L324.653 678.34L314.88 676.563V674.341L322.431 673.452L323.319 669.898L321.985 666.344L328.65 665.01L334.869 660.568L339.758 656.568L342.869 641.907L337.538 632.134C337.538 632.134 333.984 628.134 332.207 628.134C330.43 628.134 322.876 627.688 322.876 627.688L312.657 631.688L311.323 625.911L315.323 618.358C315.323 618.358 317.1 616.138 315.323 613.915C313.546 611.693 310.88 609.027 310.435 607.25C309.989 605.473 302.438 601.474 302.438 601.474C302.438 601.474 302.884 598.363 304.215 598.363C305.549 598.363 307.326 597.917 308.658 598.808C309.989 599.7 313.989 602.808 313.989 601.474C313.989 600.14 313.989 600.585 313.989 598.363C313.989 596.14 313.989 596.14 313.989 596.14L310.878 590.809L308.655 583.701L300.659 571.705L295.328 570.371L292.217 562.375L285.992 533.963L271.33 517.97L264.665 519.304L260.666 520.638L254.889 519.304C254.889 519.304 250.889 515.75 252.224 515.75C253.558 515.75 258.889 514.416 258.889 514.416L269.108 511.305L273.107 509.083L272.219 505.529L269.553 504.64L278.438 499.309C278.438 499.309 286.88 480.205 288.657 478.874C290.434 477.543 293.988 473.543 293.988 472.209C293.988 470.875 292.211 466.878 292.211 466.878L278.884 462.436L265.556 459.77C265.556 459.77 260.668 463.324 257.56 464.213C254.452 465.101 248.23 465.547 248.23 465.547C248.23 465.547 246.453 465.101 248.23 463.77C250.007 462.438 251.784 461.547 251.784 461.547L255.783 457.993L256.672 456.216C256.672 456.216 254.449 456.216 254.449 454.882C254.449 453.548 255.337 452.217 257.114 450.883C258.891 449.548 262.891 448.217 262.891 448.217L270.444 440.664L273.998 433.11L272.664 430.445L270.887 429.999C270.887 429.999 269.11 431.333 265.999 431.776C262.888 432.222 252.672 432.222 252.672 432.222L247.784 430.445L244.673 426.891L241.119 427.779L240.23 438.441L235.345 438.887C235.345 438.887 234.011 437.552 233.568 438.887C233.123 440.221 232.234 442.441 232.234 442.441L233.568 448.217C233.568 448.217 234.902 450.44 233.568 450.44C232.234 450.44 223.349 450.885 223.349 450.885L222.461 459.327H218.907L220.241 461.55L222.906 465.55V470.88C222.906 470.88 223.352 472.657 221.572 472.657C219.792 472.657 219.35 471.769 218.018 470.88C216.687 469.992 214.464 466.881 214.464 466.881L211.799 464.215V459.773V456.219H208.245V460.219H203.802V463.773L208.245 467.326L210.91 469.992L211.799 473.546L215.353 475.323L219.795 477.988L216.241 484.208H210.91C210.91 484.208 210.022 485.096 210.91 486.43C211.799 487.764 215.353 492.207 215.353 492.207H220.241L220.687 495.318L218.91 502.426L208.691 528.638L214.467 529.083L219.798 512.202C219.798 512.202 219.798 513.979 223.352 513.979C226.906 513.979 228.24 513.09 228.24 513.09C229.129 516.202 227.794 521.532 227.794 521.532L226.46 525.975L229.126 529.086L214.91 550.41L217.575 555.741L220.241 552.629L225.129 556.629C225.129 556.629 226.906 559.74 228.24 557.963C229.574 556.186 227.794 552.632 230.017 552.632C232.24 552.632 237.571 554.409 237.571 554.409C237.571 554.409 239.348 555.743 241.567 555.298C243.787 554.852 249.121 550.41 249.121 550.41L254.897 552.187L253.563 556.629L244.233 563.294L249.564 582.841L260.671 577.064L256.229 585.949L254.895 588.172V597.057L250.007 597.502L249.118 604.61L248.23 609.498L242.453 606.833C242.453 606.833 242.899 606.387 239.788 606.387C236.679 606.387 232.234 606.833 230.457 606.387C228.68 605.941 220.684 600.61 220.684 600.61L218.018 602.833L221.572 608.164C221.572 608.164 223.795 613.052 221.572 613.052C219.35 613.052 217.573 612.164 216.241 613.941C214.907 615.718 213.13 618.383 213.13 618.383L217.573 618.829H223.792L225.126 620.606V625.048L223.792 636.598L195.803 648.594V652.594C195.803 652.594 196.249 653.482 197.58 654.816C198.912 656.151 198.914 656.151 198.914 656.151L207.356 656.596L216.687 653.485C216.687 653.485 217.133 655.708 216.241 657.485C215.35 659.262 215.353 659.262 215.353 659.262L220.684 662.816C223.795 662.816 225.126 663.261 225.126 663.261L226.46 666.815L231.791 670.369C231.791 670.369 234.902 671.258 236.679 670.369C238.456 669.481 242.453 666.815 242.453 666.815L249.118 662.373L249.564 664.595L246.01 668.149L242.01 675.257C242.01 675.257 244.233 677.034 235.791 675.257C227.349 673.48 222.906 672.592 221.129 672.592C219.352 672.592 214.91 672.592 214.91 672.592L214.021 676.591C214.021 676.591 216.244 681.479 214.021 681.479C211.799 681.479 204.248 681.479 204.248 681.479C204.248 681.479 202.026 689.921 200.249 690.364C198.472 690.807 200.694 691.698 195.361 693.475C190.03 695.252 185.587 701.029 185.587 701.029L176.705 701.447Z" fill="#2074DD"/>
<path d="M517.742 545.217L510.93 546.994L509.448 548.771C509.448 548.771 508.855 553.509 509.743 554.696C510.632 555.879 515.074 559.731 515.074 559.731L524.847 564.174L526.92 557.659C526.92 557.659 530.474 557.066 526.92 551.44C523.366 545.813 522.477 544.627 522.477 544.627L517.742 545.217Z" fill="#396BA9"/>
<path d="M542.031 530.704L538.477 532.186V535.74L534.923 538.701L528.408 539.589C528.408 539.589 529.001 543.143 529.89 543.438C530.778 543.733 534.628 545.51 534.628 545.51L535.221 553.211L541.145 556.172L546.181 560.319L550.623 563.28C550.623 563.28 554.472 564.464 554.472 562.985C554.472 561.503 552.695 556.765 552.695 556.765L557.433 554.1C557.433 554.1 559.505 553.805 559.505 552.028C559.505 550.251 558.617 548.769 558.617 548.769L555.951 546.104L556.84 541.661L559.8 538.996L558.912 528.334C558.912 528.334 555.063 528.039 554.174 527.445C553.286 526.852 548.25 525.668 548.25 526.852C548.25 528.036 547.657 535.144 547.657 536.33C547.657 537.514 549.139 540.773 547.657 540.773C546.175 540.773 544.103 540.773 544.103 539.291C544.103 537.809 544.398 540.475 544.103 537.809C543.808 535.147 542.031 530.704 542.031 530.704Z" fill="#396BA9"/>
<path d="M640.063 476.506L637.103 479.467L634.437 499.014L631.477 514.413C631.477 514.413 634.142 515.302 634.735 514.118C635.328 512.934 637.994 504.345 637.994 504.345C637.994 504.345 641.548 490.424 641.548 489.24C641.545 488.057 640.063 476.506 640.063 476.506Z" fill="#2074DD"/>
<path d="M664.944 455.182L661.095 460.809C661.095 460.809 657.246 464.658 657.246 465.546C657.246 466.435 658.728 473.247 658.728 473.247L660.505 480.949L665.836 484.503C665.836 484.503 671.167 475.618 671.167 474.434C671.167 473.25 670.871 469.103 670.573 467.031C670.278 464.959 670.278 458.441 670.278 457.553C670.278 456.664 672.648 454.887 672.648 454.887L666.134 451.038L664.944 455.182Z" fill="#2074DD"/>
<path d="M28.7675 117.845C28.7675 118.733 32.3214 123.176 32.3214 123.176L50.6844 123.769L56.9038 133.84L55.422 137.099L50.9824 139.464C50.9824 139.464 52.1661 139.464 53.3526 140.647C54.5363 141.831 56.6113 143.608 56.6113 143.608L55.7228 146.867L54.5391 148.348L52.4669 148.644L45.0638 146.572L36.4742 142.129L24.6258 137.982C24.6258 137.982 23.4421 143.313 24.3306 144.201C25.2191 145.09 29.3663 146.572 29.3663 146.572L36.1789 147.755L42.6936 154.27C42.6936 154.27 45.6543 170.558 45.6543 171.744C45.6543 172.928 43.8773 174.705 41.8051 174.705C39.7329 174.705 31.7365 174.705 30.2548 174.705C28.773 174.705 26.1076 174.705 26.1076 174.705L25.5143 179.443C25.5143 179.443 50.9852 188.921 50.9852 189.809C50.9852 190.698 51.5784 196.917 51.5784 197.806C51.5784 198.694 53.6506 201.36 53.6506 201.36L64.9057 203.73C64.9057 203.73 69.9414 213.208 71.1251 213.798C72.3088 214.392 82.3802 214.392 82.3802 214.392L88.8948 210.244L110.812 212.317L124.434 203.134L133.912 201.357C133.912 201.357 138.355 205.504 139.243 205.504C140.132 205.504 149.017 196.324 151.682 195.137C154.348 193.954 165.305 189.806 165.305 189.806L165.898 178.849C165.898 178.849 168.268 177.368 168.268 175.591C168.268 173.814 167.084 170.555 165.307 168.483C163.53 166.411 159.976 162.559 159.976 162.559L159.681 159.598V155.156L159.088 153.083C159.088 153.083 156.127 154.86 159.383 149.529C162.642 144.198 161.16 146.271 161.16 146.271L163.53 142.717L152.573 142.124C152.573 142.124 152.869 137.386 151.98 136.497C151.092 135.609 146.944 132.055 146.944 132.055L141.02 131.76L138.06 141.533L134.801 141.828L130.952 138.274C130.952 138.274 127.102 139.756 126.214 140.347C125.326 140.94 122.365 141.53 122.365 141.53L121.476 137.681L118.811 132.055L116.145 131.76L114.962 138.868L113.185 148.346C113.185 148.346 112.296 147.752 112.001 146.569C111.706 145.385 107.854 129.392 107.854 129.392L100.451 130.576L96.6015 137.389L94.5293 137.093L90.6801 126.136C90.6801 126.136 90.0869 123.176 89.1984 123.766C88.3099 124.359 85.9397 125.543 85.9397 125.543L80.0155 140.352H78.5338L76.4616 135.614L64.9001 145.981C64.9001 145.981 63.4184 129.988 64.6049 129.395C65.7886 128.802 70.8243 128.211 70.8243 127.025C70.8243 125.841 74.6735 116.956 74.6735 116.956L65.1954 100.075L61.6414 99.1865L62.5299 114.589L49.2026 104.222L45.6487 108.665L45.9439 118.733L41.5015 117.251L38.5408 111.327L36.4686 114.586C36.4686 114.586 36.7638 116.658 34.3964 116.658C32.0289 116.658 28.7675 117.845 28.7675 117.845Z" fill="#2F48EB"/>
<path d="M804.255 331.096L832.873 253.193C832.873 253.193 827.542 236.312 824.877 236.312C822.212 236.312 812.438 225.65 812.438 225.65L799.111 214.988V205.215C799.111 205.215 792.003 190.999 784.007 184.78C776.01 178.56 776.01 178.56 776.01 178.56V162.568L750.244 130.582L752.91 104.816C752.91 104.816 736.028 88.8233 729.809 86.1579C723.59 83.4924 724.478 76.3845 724.478 76.3845L725.367 65.7227L719.147 57.7263L719.593 45.2875L710.262 42.6221L703.597 35.957L696.935 41.7336L687.605 47.0645L686.716 56.8378L682.717 66.1683L686.27 71.4992L685.828 84.8265L681.828 93.2685L675.163 88.8261L664.944 85.2722L664.056 89.2717C664.056 89.2717 664.498 91.4944 661.833 91.9372C659.167 92.3801 655.613 93.2713 653.837 93.2713C652.06 93.2713 649.394 95.0483 648.506 93.2713C647.617 91.4944 645.395 86.1634 644.063 84.3865C642.732 82.6095 637.844 76.8329 637.844 76.8329L630.736 78.6099L628.959 81.721L632.067 84.3865L632.956 91.0515L635.178 96.3824L658.279 105.267L668.052 109.267L671.161 129.702L674.272 130.59L675.603 141.698C675.603 141.698 676.937 145.252 678.268 146.586C679.603 147.92 683.599 155.471 683.599 155.471V170.575L692.71 183.39C692.944 183.29 693.167 183.17 693.373 183.017C695.15 181.683 695.15 181.683 695.15 181.683L702.258 179.46C702.258 179.46 704.923 179.903 705.366 181.237C705.812 182.571 704.923 183.46 706.7 183.902C708.477 184.345 710.254 185.234 710.254 185.234L713.362 186.568L715.139 192.344V199.452C715.139 199.452 715.585 202.118 715.139 203.895C714.696 205.672 711.142 207.894 711.142 207.894L709.366 211.005L712.031 219.002L709.366 227.444L703.589 239.883C703.589 239.883 697.815 251.433 696.035 252.321C694.258 253.21 687.593 255.432 686.705 256.764C685.816 258.098 685.371 260.318 685.816 261.652C686.259 262.986 688.482 265.206 688.482 265.206V268.317L685.816 272.759L680.937 273.631L675.606 278.074V286.516L683.602 304.285L688.933 318.058L694.264 320.724L690.71 338.493L692.93 349.601L698.706 358.486H707.591L719.587 360.708C719.587 360.708 717.365 364.262 716.476 367.373C715.588 370.484 713.365 370.039 715.588 370.484C717.81 370.93 723.141 370.93 723.141 370.93L729.806 370.042L731.14 373.153C733.806 372.707 737.805 372.264 737.805 372.264L743.582 369.599L746.693 364.711L751.135 361.6L759.577 359.823L764.908 352.715L768.019 348.272C768.019 348.272 768.908 348.272 775.127 346.495C781.347 344.718 788.455 338.499 788.455 338.499C788.455 338.499 793.786 338.945 796.894 337.165C798.342 336.338 801.336 333.678 804.297 331.071C804.277 331.076 804.266 331.085 804.255 331.096Z" fill="#2F48EB"/>
<path d="M725.359 65.7169L728.024 58.609L724.47 50.6126L734.244 41.7278V31.9544H723.582C723.582 31.9544 721.805 38.1738 719.139 35.5084C716.474 32.8429 706.701 23.9581 706.701 23.9581L721.805 17.7387C721.805 17.7387 720.916 11.5193 716.474 10.6308C712.031 9.7423 701.37 4.41139 695.15 3.5229C688.931 2.63442 693.373 -2.6965 686.265 1.74593C679.157 6.18836 679.157 6.18836 679.157 6.18836C679.157 6.18836 683.157 10.1879 683.157 11.5193C683.157 12.8506 680.046 22.1811 680.046 22.1811L677.38 23.5152L674.269 19.5156L672.492 23.0696C672.492 23.0696 671.604 28.4005 671.158 30.6231C670.715 32.8457 671.604 35.5112 669.827 35.5112C668.05 35.5112 665.385 39.9536 664.496 35.5112C663.608 31.0687 663.608 29.2918 663.608 29.2918V24.8493V17.7415L664.053 13.299L660.499 12.8534L657.834 13.7419L653.834 17.7415V26.6263L652.057 31.9572C652.057 31.9572 645.838 32.4029 644.504 31.5116C643.172 30.6231 641.838 28.8461 640.061 28.8461C638.284 28.8461 632.508 31.0687 632.508 31.0687C632.508 31.0687 630.285 33.2914 631.619 34.1798C632.951 35.0683 635.616 35.514 635.616 35.514L639.17 36.8453L643.612 38.1794C643.612 38.1794 643.167 40.8449 644.055 42.6218C644.944 44.3988 644.944 47.9528 644.944 47.9528C644.944 47.9528 643.612 49.7297 642.278 49.7297C640.947 49.7297 640.501 49.7297 638.282 49.7297C636.059 49.7297 632.062 48.8412 632.062 48.8412H628.065L627.177 51.0639V55.0634L632.508 59.5059C632.508 59.5059 627.62 58.1717 626.288 59.0602C624.954 59.9487 620.957 60.8372 620.957 62.6142C620.957 64.3911 619.623 68.3879 619.623 68.3879H616.515L615.181 60.8344C612.07 61.28 608.962 60.8344 608.962 62.1685C608.962 63.5027 610.293 65.7225 608.962 65.7225C607.63 65.7225 605.85 67.0566 604.073 65.2796C602.296 63.5027 600.965 62.1685 600.965 62.1685L600.52 60.3916C600.52 60.3916 597.854 61.28 597.854 63.057C597.854 64.834 599.631 67.9423 599.631 67.9423C599.631 67.9423 604.073 71.4962 602.742 71.4962C601.408 71.4962 600.52 71.9419 598.3 71.9419C596.077 71.9419 591.192 71.0534 591.192 72.3847C591.192 73.7188 593.857 77.7156 593.857 77.7156L600.522 82.6037C600.522 82.6037 597.414 84.3807 594.303 84.3807C591.195 84.3807 584.084 83.4922 584.084 83.4922C584.084 83.4922 580.976 82.1581 580.976 83.9378C580.976 85.7176 579.641 91.9342 579.641 91.9342C579.641 91.9342 579.199 94.1568 580.53 94.1568C581.864 94.1568 585.861 95.4909 585.861 95.4909C585.861 95.4909 586.304 100.379 586.304 101.71C586.304 103.044 585.415 104.376 585.415 104.376H577.419C577.419 104.376 574.753 101.71 573.865 100.379C572.977 99.0449 569.423 98.602 567.646 98.602C565.869 98.602 559.204 98.602 559.204 98.602C559.204 98.602 562.315 102.156 564.092 102.156C565.869 102.156 568.534 102.156 568.534 102.156L570.754 103.49L564.534 108.378H549.873L556.092 113.709C556.092 113.709 556.981 110.598 557.869 114.598C558.758 118.594 561.866 118.594 561.866 118.594L564.977 116.817L571.642 113.263L572.977 110.598L582.307 110.152L589.86 112.375L587.641 116.375L581.864 119.04L573.868 120.817C573.868 120.817 576.09 130.59 574.311 131.036C572.534 131.482 564.092 132.813 563.203 134.147C562.315 135.481 560.981 138.144 560.981 138.144L562.758 140.366L568.977 139.921L567.2 142.143V146.143L557.869 151.031C557.869 151.031 556.981 155.916 557.869 157.25C558.758 158.585 561.423 158.585 561.423 158.585C562.755 160.807 567.2 163.027 562.755 163.915C558.312 164.804 553.424 167.027 553.424 167.027L545.873 174.134C545.873 174.134 540.097 180.799 540.097 182.131C540.097 183.462 539.654 185.239 540.985 187.016C542.319 188.793 543.651 191.459 543.651 191.459C543.651 191.459 548.539 190.57 540.985 192.793C533.432 195.015 533.432 198.569 533.432 198.569L537.431 203.457V209.234L534.32 214.565V219.453L536.543 223.007C536.543 223.007 544.985 223.895 537.431 226.561C529.878 229.226 524.547 230.56 524.547 230.56L519.216 234.56V237.671L521.882 239.894L520.547 247.001L518.325 253.221L513.437 253.666L509.883 252.778L504.995 260.774L503.218 268.771C503.218 268.771 505.44 271.882 501.884 272.77C498.33 273.659 498.33 273.659 498.33 273.659C498.33 273.659 492.553 272.325 497.884 275.879C503.215 279.433 505.438 280.767 505.438 280.767L513.434 279.878C513.434 279.878 513.88 282.989 511.657 283.878C509.434 284.766 503.661 286.543 503.661 286.543H501.009L497.01 282.989L496.564 280.324L489.899 279.881L489.453 284.769L487.231 288.323H485.454L482.343 287.877L477.9 290.543C477.9 290.543 477.454 290.988 477.454 292.765C477.454 294.542 476.566 301.205 476.566 301.205C473.455 301.65 472.566 301.205 471.235 301.205C469.904 301.205 468.124 300.759 465.904 300.759C463.682 300.759 462.35 300.759 462.35 300.759L456.576 301.647L454.8 304.313L456.134 308.755L460.576 310.978L461.465 314.532L461.019 317.197H455.245L451.691 317.643H447.254L445.477 320.308L445.923 326.528L443.7 329.193H439.258L429.927 328.305L425.928 327.416L424.151 328.748V332.747L427.262 334.967L432.15 338.521C425.042 339.855 425.042 339.855 425.042 339.855L424.154 345.186V346.963L425.931 350.074L426.819 353.185L419.266 354.074L420.154 359.405L428.596 360.739L432.596 366.07H421.934C421.934 366.07 421.934 368.292 421.934 370.512C421.934 372.735 420.157 375.4 420.157 375.4L419.711 378.954L422.377 379.843L427.265 378.511L428.153 382.065L425.042 384.288L424.154 388.287L425.042 390.953C425.042 390.953 427.708 391.841 429.93 393.175C432.153 394.51 428.153 391.841 432.153 394.51C436.152 397.175 436.152 397.175 436.152 397.175C436.152 397.175 440.595 391.844 441.041 393.175C441.486 394.51 441.486 396.729 441.486 396.729L438.821 398.064L435.71 400.286L433.487 402.952L433.041 404.729L433.487 406.505V409.171L431.71 410.948L424.602 413.613V421.61L426.379 423.387L432.156 422.941L440.152 421.607V426.049V433.157L439.264 436.711L429.933 434.489L425.491 432.266L425.936 439.374L428.602 443.816L433.49 447.37L438.821 451.813L442.375 455.367L443.709 460.698C443.709 460.698 440.598 462.032 443.709 462.475C446.82 462.92 447.708 463.363 450.817 463.363C453.925 463.363 457.482 464.251 457.482 464.251L462.813 464.697C462.813 464.697 465.035 465.143 469.032 463.809C473.032 462.475 477.028 460.698 477.028 460.698L484.582 453.144C484.582 453.144 489.913 437.594 492.578 436.706C495.244 435.817 497.466 434.04 501.909 433.152C506.351 432.263 513.905 430.041 513.905 430.041V423.378V417.602V410.494L516.127 409.605C516.127 409.605 520.127 412.271 520.57 414.936C521.013 417.602 521.458 423.378 521.458 423.378L523.681 426.487C525.458 428.264 526.792 427.375 527.235 429.152L531.677 430.486L535.231 433.597L541.008 426.044L538.342 419.379L537.454 409.16C537.454 409.16 540.119 403.383 540.565 402.052C541.008 400.718 544.119 398.941 544.119 398.941C544.119 398.941 549.895 381.171 549.007 379.837C548.118 378.506 544.564 371.841 544.564 371.841L541.456 364.287H546.787L549.452 352.737V346.517L537.902 338.964L540.568 333.19L533.46 296.317L535.682 284.321L537.014 273.659L540.125 267.882L546.79 264.771H565.005C565.005 264.771 565.894 255.441 565.448 252.775C565.005 250.11 561.006 249.221 561.006 249.221L557.009 241.668L566.782 221.233L561.006 197.243L569.89 193.689C569.89 193.689 573.444 192.355 574.778 191.913C576.113 191.467 574.778 188.359 574.778 188.359L571.667 185.247L572.113 179.917L579.667 172.809C579.667 172.809 582.778 166.589 582.778 165.255C582.778 163.921 582.778 162.144 582.332 160.367C581.889 158.59 578.778 149.26 578.778 149.26L585.443 131.933L593.885 129.267C593.885 129.267 599.662 129.267 600.993 128.822C602.324 128.379 600.993 126.156 600.993 126.156V117.271C600.993 117.271 602.324 113.275 603.213 110.609C604.101 107.944 609.878 110.609 609.878 110.609L621.428 112.386L624.094 110.609L623.205 101.724L619.651 95.5048L617.874 88.397L628.536 87.0629L632.979 91.0624L632.09 84.3974L628.982 81.7319L630.759 78.6208L637.867 76.8439C637.867 76.8439 642.755 82.6204 644.086 84.3974C645.417 86.1744 647.64 91.5053 648.528 93.2822C649.417 95.0592 652.082 93.2822 653.859 93.2822C655.636 93.2822 659.19 92.3938 661.856 91.9481C664.521 91.5025 664.078 89.2827 664.078 89.2827L664.967 85.2831L675.186 88.837L681.851 93.2794L685.85 84.8375L686.293 71.5102L682.739 66.1793L686.739 56.8488L687.627 47.0754L696.958 41.7445L703.62 35.968L710.285 42.633L719.616 45.2984L719.17 57.7372L725.359 65.7169Z" fill="#569AEF"/>
<path d="M669.384 187.888C669.384 186.111 661.83 184.777 671.606 183.446C681.38 182.112 676.494 180.78 681.38 182.112C686.265 183.446 688.488 183.446 688.488 183.446C688.488 183.446 690.922 184.139 692.713 183.376L683.602 170.561V155.457C683.602 155.457 679.605 147.904 678.271 146.572C676.94 145.238 675.606 141.684 675.606 141.684L674.275 130.577L671.163 129.688L668.055 109.253L658.282 105.253L635.181 96.3686L632.959 91.0377L628.516 87.0381L617.854 88.3722L619.631 95.4801L623.185 101.699L624.074 110.584L621.408 112.361L609.858 110.584C609.858 110.584 604.081 107.919 603.193 110.584C602.304 113.25 600.973 117.247 600.973 117.247V126.131C600.973 126.131 602.304 128.354 600.973 128.797C599.639 129.243 593.865 129.243 593.865 129.243L585.423 131.908L578.758 149.235C578.758 149.235 581.869 158.565 582.312 160.342C582.758 162.119 582.758 163.896 582.758 165.23C582.758 166.565 579.647 172.784 579.647 172.784L572.093 179.892L571.647 185.223L574.759 188.334C574.759 188.334 576.093 191.445 574.759 191.888C573.424 192.333 569.87 193.665 569.87 193.665L560.986 197.219L566.762 221.208L556.989 241.643L560.986 249.196C560.986 249.196 564.985 250.085 565.428 252.75C565.874 255.416 564.985 264.746 564.985 264.746H546.77L540.105 267.857L536.994 273.634L535.662 284.296L533.44 296.292L540.548 333.165L537.882 338.939L549.433 346.493V352.712L546.767 364.262H541.436L544.544 371.816C544.544 371.816 548.098 378.481 548.987 379.812C549.875 381.146 544.099 398.916 544.099 398.916C544.099 398.916 540.988 400.693 540.545 402.027C540.099 403.361 537.434 409.135 537.434 409.135L538.322 419.354L540.988 426.019L535.211 433.573L531.657 430.461L527.215 429.127C527.66 430.904 528.992 435.347 528.992 435.347L531.214 452.228H537.879L544.987 451.339L540.988 471.332L542.322 474.886L548.541 477.997L547.653 482.439V485.105L552.984 488.659C552.984 488.659 556.538 498.432 557.426 500.209C558.315 501.986 565.868 505.986 565.868 505.986C565.868 505.986 565.868 509.097 565.868 511.316C565.868 513.539 563.203 518.87 563.203 518.87C563.203 518.87 556.983 518.87 556.983 520.647C556.983 522.424 558.315 525.535 558.315 525.535C558.315 525.535 563.203 528.2 564.091 529.535C564.98 530.869 573.422 537.088 573.422 538.419C573.422 539.751 566.314 544.196 569.868 545.527C573.422 546.859 589.86 547.75 589.86 547.75C589.86 547.75 596.079 545.973 596.079 544.196C596.079 542.419 596.968 542.419 596.079 539.754C595.191 537.088 592.968 533.089 592.968 533.089L593.857 528.2L598.299 525.535L600.965 521.093L601.853 517.981L607.184 515.316H620.069C620.069 515.316 624.065 523.312 624.065 519.758C624.065 516.204 628.065 501.1 628.953 499.323C629.842 497.546 633.396 482.442 632.95 480.219C632.507 477.997 630.73 470 630.73 470C630.73 470 629.396 454.451 629.396 453.119C629.396 451.785 628.953 437.126 628.953 437.126L628.508 432.238L638.727 425.573L642.726 420.685L646.28 422.019C646.28 422.019 647.612 421.131 649.389 419.354C651.166 417.577 654.277 414.466 654.277 414.466L655.608 412.243V407.801L648.946 407.355C648.946 407.355 646.28 409.578 644.503 410.466C642.726 411.355 639.618 411.801 637.841 412.243C636.064 412.689 634.287 412.689 634.287 412.689L630.733 408.689L627.622 408.244L616.515 406.91H612.072C612.072 406.91 611.184 403.356 613.406 403.356C615.626 403.356 622.291 403.356 622.291 403.356H634.73C634.73 403.356 639.172 396.691 640.506 396.691C641.841 396.691 642.283 398.025 642.283 398.025L643.618 404.244L657.833 394.914L659.61 390.471L655.611 381.586L648.503 379.809L644.949 376.701L642.283 373.59L632.51 369.148L625.845 366.925L624.068 363.371L621.848 336.271V329.163L621.403 326.498L624.068 322.944L621.848 319.39C621.848 319.39 621.403 319.39 619.626 316.724C617.849 314.059 616.96 314.502 616.96 312.725C616.96 310.948 618.294 305.617 618.294 305.617H623.18L628.068 305.171L628.956 287.844L635.618 285.622L636.953 282.956L638.287 275.848L647.172 274.517C647.172 274.517 652.502 255.413 654.722 254.082C656.945 252.748 664.053 250.528 665.384 246.528C666.718 242.529 667.607 238.975 667.607 238.975L668.495 227.867C668.495 227.867 660.499 224.313 660.499 222.979C660.499 221.648 661.387 216.76 661.387 216.76L663.607 208.763L664.053 202.987L668.941 198.544C668.941 198.544 673.383 198.099 672.938 196.322C672.492 194.553 669.384 189.665 669.384 187.888Z" fill="#2074DD"/>
<path d="M201.585 546.401L198.474 537.962L196.251 533.074L189.143 532.631L181.261 534.45L179.521 536.628L167.672 541.368L164.712 548.476L161.748 553.807L165.302 563.282L168.265 563.875L174.78 563.282L186.035 569.8L189.781 572.476L190.032 570.836H194.474L198.028 567.727L202.474 565.059L206.916 563.282L208.693 557.063L201.585 551.732V546.401Z" fill="#2074DD"/>
<path d="M505.898 570.836C505.453 568.613 505.453 565.059 505.453 565.059L501.01 560.617L502.787 557.506L504.564 555.729C504.564 555.729 504.118 556.174 504.564 551.286C505.01 546.398 504.564 545.067 504.564 545.067C504.564 545.067 512.118 537.071 513.006 534.405C513.895 531.74 514.783 526.852 514.783 525.52C514.783 524.189 517.449 522.855 518.783 522.855C520.117 522.855 524.114 528.186 524.114 525.52C524.114 522.855 525.002 516.635 525.002 516.635L525.448 513.97L520.56 511.305L516.56 508.193L514.337 502.417L515.672 498.863L518.783 494.863L517.894 489.975L518.783 481.533L521.005 475.757L521.451 473.091H516.563C516.563 473.091 518.34 476.202 516.563 477.091C514.786 477.979 520.117 477.536 514.786 477.979C509.455 478.425 509.009 478.868 507.678 479.313C506.347 479.759 504.567 481.536 504.567 481.536L502.79 485.536L495.682 495.309C495.682 495.309 491.682 496.643 488.129 496.643C484.575 496.643 481.909 496.643 481.909 496.643C481.909 496.643 481.909 496.643 480.575 498.42C479.241 500.197 476.133 509.082 476.133 509.082V517.967L473.91 530.851V538.405C473.91 538.405 473.021 543.293 473.021 544.624C473.021 545.955 480.129 549.955 480.129 549.955C482.795 551.289 484.572 553.955 484.572 553.955L484.187 567.062L491.089 568.911L503.233 571.282H506.659L505.898 570.836Z" fill="#396BA9"/>
<rect x="260.5" y="585.5" width="198" height="36" rx="7.5" fill="white"/>
<rect x="260.5" y="585.5" width="198" height="36" rx="7.5" stroke="#345988"/>
<path d="M285.138 610V596.909H290.379C291.342 596.909 292.146 597.052 292.789 597.337C293.433 597.623 293.916 598.019 294.24 598.526C294.564 599.029 294.726 599.609 294.726 600.265C294.726 600.776 294.624 601.226 294.419 601.614C294.214 601.997 293.933 602.312 293.575 602.56C293.222 602.803 292.817 602.975 292.361 603.077V603.205C292.859 603.227 293.326 603.367 293.761 603.627C294.2 603.887 294.555 604.251 294.828 604.72C295.101 605.185 295.237 605.739 295.237 606.382C295.237 607.077 295.065 607.697 294.719 608.242C294.379 608.783 293.874 609.212 293.205 609.527C292.536 609.842 291.711 610 290.731 610H285.138ZM287.906 607.737H290.162C290.933 607.737 291.496 607.59 291.849 607.296C292.203 606.998 292.38 606.602 292.38 606.107C292.38 605.745 292.293 605.425 292.118 605.148C291.943 604.871 291.694 604.654 291.37 604.496C291.05 604.339 290.669 604.26 290.226 604.26H287.906V607.737ZM287.906 602.387H289.957C290.337 602.387 290.673 602.321 290.967 602.189C291.266 602.053 291.5 601.861 291.67 601.614C291.845 601.366 291.933 601.07 291.933 600.725C291.933 600.252 291.764 599.871 291.428 599.581C291.095 599.291 290.622 599.146 290.009 599.146H287.906V602.387ZM301.461 610.192C300.452 610.192 299.582 609.987 298.854 609.578C298.129 609.165 297.571 608.581 297.179 607.827C296.787 607.068 296.591 606.171 296.591 605.136C296.591 604.126 296.787 603.239 297.179 602.477C297.571 601.714 298.123 601.119 298.834 600.693C299.55 600.267 300.39 600.054 301.353 600.054C302.001 600.054 302.604 600.158 303.162 600.367C303.724 600.572 304.214 600.881 304.632 601.294C305.054 601.707 305.382 602.227 305.616 602.854C305.851 603.476 305.968 604.205 305.968 605.04V605.788H297.677V604.1H303.405C303.405 603.708 303.319 603.361 303.149 603.058C302.979 602.756 302.742 602.519 302.439 602.349C302.141 602.174 301.794 602.087 301.398 602.087C300.984 602.087 300.618 602.183 300.298 602.374C299.983 602.562 299.736 602.815 299.557 603.135C299.378 603.45 299.286 603.802 299.282 604.19V605.794C299.282 606.28 299.371 606.7 299.55 607.053C299.733 607.407 299.991 607.68 300.324 607.871C300.656 608.063 301.05 608.159 301.506 608.159C301.809 608.159 302.086 608.116 302.337 608.031C302.589 607.946 302.804 607.818 302.983 607.648C303.162 607.477 303.298 607.268 303.392 607.021L305.91 607.188C305.782 607.793 305.52 608.321 305.124 608.773C304.732 609.22 304.225 609.57 303.603 609.821C302.985 610.068 302.271 610.192 301.461 610.192ZM307.17 610L307.157 607.839H307.483C307.713 607.839 307.911 607.784 308.077 607.673C308.248 607.558 308.388 607.373 308.499 607.117C308.61 606.862 308.697 606.523 308.761 606.101C308.825 605.675 308.868 605.151 308.889 604.528L309.049 600.182H316.515V610H313.92V602.323H311.497L311.344 605.321C311.305 606.143 311.205 606.851 311.043 607.443C310.885 608.036 310.666 608.521 310.385 608.901C310.104 609.276 309.765 609.553 309.368 609.732C308.972 609.911 308.512 610 307.988 610H307.17ZM321.227 606.408L324.762 600.182H327.447V610H324.852V603.755L321.33 610H318.626V600.182H321.227V606.408ZM329.63 610V600.182H332.353V603.991H333.12L335.792 600.182H338.988L335.517 605.053L339.026 610H335.792L333.369 606.516H332.353V610H329.63ZM344.208 610.192C343.215 610.192 342.357 609.981 341.632 609.559C340.912 609.133 340.356 608.54 339.964 607.782C339.572 607.019 339.376 606.135 339.376 605.129C339.376 604.115 339.572 603.229 339.964 602.47C340.356 601.707 340.912 601.115 341.632 600.693C342.357 600.267 343.215 600.054 344.208 600.054C345.201 600.054 346.058 600.267 346.778 600.693C347.502 601.115 348.061 601.707 348.453 602.47C348.845 603.229 349.041 604.115 349.041 605.129C349.041 606.135 348.845 607.019 348.453 607.782C348.061 608.54 347.502 609.133 346.778 609.559C346.058 609.981 345.201 610.192 344.208 610.192ZM344.221 608.082C344.673 608.082 345.05 607.955 345.352 607.699C345.655 607.439 345.883 607.085 346.036 606.638C346.194 606.19 346.273 605.681 346.273 605.11C346.273 604.539 346.194 604.03 346.036 603.582C345.883 603.135 345.655 602.781 345.352 602.521C345.05 602.261 344.673 602.131 344.221 602.131C343.765 602.131 343.382 602.261 343.07 602.521C342.764 602.781 342.531 603.135 342.374 603.582C342.22 604.03 342.144 604.539 342.144 605.11C342.144 605.681 342.22 606.19 342.374 606.638C342.531 607.085 342.764 607.439 343.07 607.699C343.382 607.955 343.765 608.082 344.221 608.082ZM358.974 596.577L359.805 598.354C359.528 598.584 359.221 598.754 358.884 598.865C358.548 598.972 358.145 599.042 357.676 599.076C357.212 599.11 356.645 599.134 355.976 599.146C355.218 599.155 354.6 599.276 354.122 599.511C353.645 599.745 353.283 600.114 353.036 600.616C352.789 601.115 352.627 601.767 352.55 602.572H352.646C352.94 601.972 353.353 601.507 353.886 601.179C354.423 600.851 355.085 600.687 355.874 600.687C356.709 600.687 357.44 600.87 358.066 601.237C358.697 601.603 359.187 602.129 359.536 602.815C359.886 603.501 360.061 604.324 360.061 605.283C360.061 606.28 359.865 607.147 359.472 607.884C359.085 608.617 358.533 609.186 357.817 609.591C357.101 609.991 356.249 610.192 355.26 610.192C354.267 610.192 353.411 609.983 352.691 609.565C351.975 609.148 351.421 608.532 351.029 607.718C350.641 606.904 350.447 605.903 350.447 604.714V603.908C350.447 601.543 350.907 599.79 351.828 598.648C352.748 597.506 354.101 596.926 355.887 596.909C356.372 596.901 356.811 596.898 357.203 596.903C357.595 596.907 357.938 596.888 358.232 596.845C358.531 596.803 358.778 596.713 358.974 596.577ZM355.273 608.082C355.691 608.082 356.048 607.974 356.347 607.756C356.649 607.539 356.882 607.228 357.044 606.823C357.21 606.418 357.293 605.935 357.293 605.372C357.293 604.814 357.21 604.341 357.044 603.953C356.882 603.561 356.649 603.263 356.347 603.058C356.044 602.854 355.682 602.751 355.26 602.751C354.945 602.751 354.661 602.809 354.41 602.924C354.159 603.039 353.943 603.21 353.764 603.435C353.59 603.657 353.453 603.932 353.355 604.26C353.262 604.584 353.215 604.955 353.215 605.372C353.215 606.212 353.396 606.874 353.758 607.36C354.124 607.842 354.629 608.082 355.273 608.082ZM361.868 613.682V600.182H364.553V601.831H364.674C364.793 601.567 364.966 601.298 365.192 601.026C365.422 600.749 365.72 600.518 366.087 600.335C366.457 600.148 366.918 600.054 367.467 600.054C368.183 600.054 368.844 600.241 369.449 600.616C370.054 600.987 370.538 601.548 370.9 602.298C371.262 603.043 371.443 603.979 371.443 605.104C371.443 606.199 371.266 607.124 370.913 607.878C370.563 608.628 370.086 609.197 369.481 609.585C368.88 609.968 368.207 610.16 367.461 610.16C366.933 610.16 366.483 610.072 366.112 609.898C365.746 609.723 365.445 609.504 365.211 609.239C364.977 608.971 364.798 608.7 364.674 608.428H364.591V613.682H361.868ZM364.533 605.091C364.533 605.675 364.614 606.184 364.776 606.619C364.938 607.053 365.173 607.392 365.479 607.635C365.786 607.874 366.159 607.993 366.598 607.993C367.041 607.993 367.416 607.871 367.723 607.629C368.03 607.381 368.262 607.04 368.42 606.606C368.582 606.167 368.663 605.662 368.663 605.091C368.663 604.524 368.584 604.026 368.426 603.595C368.268 603.165 368.036 602.828 367.729 602.585C367.423 602.342 367.045 602.221 366.598 602.221C366.155 602.221 365.78 602.338 365.473 602.572C365.17 602.807 364.938 603.139 364.776 603.57C364.614 604 364.533 604.507 364.533 605.091ZM375.86 606.408L379.395 600.182H382.08V610H379.484V603.755L375.962 610H373.259V600.182H375.86V606.408ZM383.276 602.323V600.182H392.174V602.323H389.01V610H386.415V602.323H383.276ZM396.273 610.185C395.647 610.185 395.088 610.077 394.598 609.859C394.108 609.638 393.721 609.312 393.435 608.881C393.154 608.447 393.013 607.906 393.013 607.258C393.013 606.712 393.113 606.254 393.314 605.884C393.514 605.513 393.787 605.214 394.132 604.989C394.477 604.763 394.869 604.592 395.308 604.477C395.751 604.362 396.216 604.281 396.701 604.234C397.272 604.175 397.733 604.119 398.082 604.068C398.431 604.013 398.685 603.932 398.843 603.825C399 603.719 399.079 603.561 399.079 603.352V603.314C399.079 602.909 398.951 602.596 398.696 602.374C398.444 602.153 398.086 602.042 397.622 602.042C397.132 602.042 396.742 602.151 396.452 602.368C396.162 602.581 395.971 602.849 395.877 603.173L393.358 602.969C393.486 602.372 393.738 601.857 394.113 601.422C394.488 600.983 394.971 600.646 395.564 600.412C396.16 600.173 396.85 600.054 397.635 600.054C398.18 600.054 398.702 600.118 399.201 600.246C399.703 600.374 400.149 600.572 400.537 600.84C400.929 601.109 401.238 601.454 401.463 601.876C401.689 602.293 401.802 602.794 401.802 603.378V610H399.22V608.638H399.143C398.985 608.945 398.775 609.216 398.51 609.45C398.246 609.68 397.929 609.862 397.558 609.994C397.187 610.121 396.759 610.185 396.273 610.185ZM397.053 608.306C397.453 608.306 397.807 608.227 398.114 608.07C398.421 607.908 398.662 607.69 398.836 607.418C399.011 607.145 399.098 606.836 399.098 606.491V605.449C399.013 605.504 398.896 605.555 398.747 605.602C398.602 605.645 398.438 605.685 398.255 605.724C398.071 605.758 397.888 605.79 397.705 605.82C397.522 605.845 397.355 605.869 397.206 605.89C396.887 605.937 396.608 606.011 396.369 606.114C396.13 606.216 395.945 606.354 395.813 606.529C395.681 606.7 395.615 606.913 395.615 607.168C395.615 607.539 395.749 607.822 396.017 608.018C396.29 608.21 396.635 608.306 397.053 608.306ZM410.748 604.004V606.146H405.621V604.004H410.748ZM406.516 600.182V610H403.915V600.182H406.516ZM412.455 600.182V610H409.872V600.182H412.455ZM417.169 606.408L420.703 600.182H423.388V610H420.793V603.755L417.271 610H414.567V600.182H417.169V606.408ZM431.324 610V602.317H429.483C428.984 602.317 428.605 602.432 428.345 602.662C428.085 602.892 427.957 603.165 427.962 603.48C427.957 603.8 428.081 604.07 428.332 604.292C428.588 604.509 428.963 604.618 429.457 604.618H432.232V606.459H429.457C428.618 606.459 427.891 606.331 427.278 606.075C426.664 605.82 426.191 605.464 425.859 605.008C425.526 604.548 425.362 604.013 425.366 603.403C425.362 602.764 425.526 602.204 425.859 601.722C426.191 601.237 426.666 600.859 427.284 600.591C427.906 600.318 428.639 600.182 429.483 600.182H433.862V610H431.324ZM425.085 610L427.815 604.886H430.416L427.693 610H425.085Z" fill="#345988"/>
<rect x="750.5" y="214.5" width="150" height="36" rx="7.5" fill="white"/>
<rect x="750.5" y="214.5" width="150" height="36" rx="7.5" stroke="#345988"/>
<path d="M780.315 227.315H783.243C784.291 227.315 785.22 227.537 786.03 227.98C786.844 228.423 787.481 229.048 787.941 229.853C788.406 230.654 788.638 231.596 788.638 232.678C788.638 233.727 788.406 234.641 787.941 235.42C787.481 236.2 786.844 236.808 786.03 237.242C785.22 237.673 784.291 237.888 783.243 237.888H780.315C779.263 237.888 778.33 237.675 777.516 237.249C776.702 236.818 776.063 236.213 775.598 235.433C775.138 234.653 774.908 233.733 774.908 232.672C774.908 231.589 775.14 230.648 775.604 229.847C776.073 229.041 776.714 228.419 777.528 227.98C778.342 227.537 779.271 227.315 780.315 227.315ZM780.315 229.629C779.753 229.629 779.256 229.742 778.826 229.968C778.4 230.19 778.067 230.526 777.829 230.978C777.59 231.43 777.471 231.994 777.471 232.672C777.471 233.32 777.592 233.859 777.835 234.289C778.082 234.719 778.419 235.041 778.845 235.254C779.271 235.467 779.761 235.574 780.315 235.574H783.262C783.82 235.574 784.308 235.465 784.726 235.248C785.148 235.031 785.474 234.707 785.704 234.276C785.938 233.846 786.055 233.313 786.055 232.678C786.055 232.001 785.938 231.436 785.704 230.984C785.474 230.533 785.148 230.194 784.726 229.968C784.308 229.742 783.82 229.629 783.262 229.629H780.315ZM783.089 225.679V239.537H780.462V225.679H783.089ZM793.227 235.408L796.762 229.182H799.447V239H796.852V232.755L793.33 239H790.626V229.182H793.227V235.408ZM808.463 233.004V235.146H803.336V233.004H808.463ZM804.231 229.182V239H801.63V229.182H804.231ZM810.169 229.182V239H807.587V229.182H810.169ZM811.707 239L811.694 236.839H812.02C812.25 236.839 812.448 236.784 812.614 236.673C812.785 236.558 812.925 236.373 813.036 236.117C813.147 235.862 813.234 235.523 813.298 235.101C813.362 234.675 813.405 234.151 813.426 233.528L813.586 229.182H821.052V239H818.457V231.323H816.034L815.881 234.321C815.842 235.143 815.742 235.851 815.58 236.443C815.423 237.036 815.203 237.521 814.922 237.901C814.641 238.276 814.302 238.553 813.906 238.732C813.509 238.911 813.049 239 812.525 239H811.707ZM828.916 239V231.317H827.075C826.576 231.317 826.197 231.432 825.937 231.662C825.677 231.892 825.549 232.165 825.553 232.48C825.549 232.8 825.673 233.07 825.924 233.292C826.18 233.509 826.555 233.618 827.049 233.618H829.823V235.459H827.049C826.21 235.459 825.483 235.331 824.869 235.075C824.256 234.82 823.783 234.464 823.45 234.008C823.118 233.548 822.954 233.013 822.958 232.403C822.954 231.764 823.118 231.204 823.45 230.722C823.783 230.237 824.258 229.859 824.876 229.591C825.498 229.318 826.231 229.182 827.075 229.182H831.453V239H828.916ZM822.677 239L825.406 233.886H828.008L825.285 239H822.677ZM840.402 233.004V235.146H835.276V233.004H840.402ZM836.171 229.182V239H833.569V229.182H836.171ZM842.109 229.182V239H839.526V229.182H842.109ZM843.454 241.876V236.839H844.209C844.426 236.703 844.601 236.486 844.733 236.188C844.869 235.889 844.98 235.538 845.065 235.133C845.155 234.728 845.223 234.291 845.27 233.822C845.321 233.349 845.366 232.872 845.404 232.391L845.66 229.182H853.189V236.839H854.711V241.876H852.116V239H846.113V241.876H843.454ZM846.919 236.839H850.62V231.278H847.974L847.871 232.391C847.799 233.439 847.694 234.33 847.558 235.062C847.422 235.791 847.209 236.384 846.919 236.839ZM858.899 235.408L862.434 229.182H865.119V239H862.523V232.755L859.001 239H856.298V229.182H858.899V235.408ZM873.054 239V231.317H871.213C870.715 231.317 870.336 231.432 870.076 231.662C869.816 231.892 869.688 232.165 869.692 232.48C869.688 232.8 869.811 233.07 870.063 233.292C870.319 233.509 870.694 233.618 871.188 233.618H873.962V235.459H871.188C870.348 235.459 869.622 235.331 869.008 235.075C868.395 234.82 867.922 234.464 867.589 234.008C867.257 233.548 867.093 233.013 867.097 232.403C867.093 231.764 867.257 231.204 867.589 230.722C867.922 230.237 868.397 229.859 869.015 229.591C869.637 229.318 870.37 229.182 871.213 229.182H875.592V239H873.054ZM866.816 239L869.545 233.886H872.147L869.424 239H866.816Z" fill="#345988"/>
<rect x="581.5" y="408.5" width="121" height="36" rx="7.5" fill="white"/>
<rect x="581.5" y="408.5" width="121" height="36" rx="7.5" stroke="#345988"/>
<path d="M606.662 419.909H609.366V430.776H613.124V419.909H615.815V430.776H619.529V419.909H622.22V433H606.662V419.909ZM624.966 433V423.182H629.152C630.363 423.182 631.319 423.412 632.022 423.872C632.725 424.332 633.077 424.987 633.077 425.835C633.077 426.367 632.879 426.81 632.483 427.164C632.086 427.518 631.537 427.756 630.833 427.88C631.422 427.923 631.922 428.057 632.336 428.283C632.753 428.504 633.071 428.792 633.288 429.146C633.51 429.499 633.62 429.891 633.62 430.322C633.62 430.88 633.471 431.359 633.173 431.76C632.879 432.161 632.446 432.467 631.875 432.68C631.309 432.893 630.616 433 629.798 433H624.966ZM627.503 430.961H629.798C630.177 430.961 630.473 430.871 630.686 430.692C630.904 430.509 631.012 430.26 631.012 429.945C631.012 429.595 630.904 429.32 630.686 429.12C630.473 428.92 630.177 428.82 629.798 428.82H627.503V430.961ZM627.503 427.222H629.21C629.483 427.222 629.715 427.183 629.907 427.107C630.103 427.026 630.252 426.911 630.354 426.761C630.461 426.612 630.514 426.435 630.514 426.231C630.514 425.928 630.392 425.692 630.15 425.521C629.907 425.351 629.574 425.266 629.152 425.266H627.503V427.222ZM639.811 433.192C638.801 433.192 637.932 432.987 637.203 432.578C636.479 432.165 635.92 431.581 635.528 430.827C635.136 430.068 634.94 429.171 634.94 428.136C634.94 427.126 635.136 426.239 635.528 425.477C635.92 424.714 636.472 424.119 637.184 423.693C637.9 423.267 638.739 423.054 639.702 423.054C640.35 423.054 640.953 423.158 641.511 423.367C642.074 423.572 642.564 423.881 642.982 424.294C643.403 424.707 643.732 425.227 643.966 425.854C644.2 426.476 644.317 427.205 644.317 428.04V428.788H636.027V427.1H641.754C641.754 426.708 641.669 426.361 641.499 426.058C641.328 425.756 641.092 425.519 640.789 425.349C640.491 425.174 640.143 425.087 639.747 425.087C639.334 425.087 638.967 425.183 638.648 425.374C638.332 425.562 638.085 425.815 637.906 426.135C637.727 426.45 637.636 426.802 637.631 427.19V428.794C637.631 429.28 637.721 429.7 637.9 430.053C638.083 430.407 638.341 430.68 638.673 430.871C639.006 431.063 639.4 431.159 639.856 431.159C640.158 431.159 640.435 431.116 640.687 431.031C640.938 430.946 641.153 430.818 641.332 430.648C641.511 430.477 641.648 430.268 641.741 430.021L644.26 430.188C644.132 430.793 643.87 431.321 643.474 431.773C643.082 432.22 642.575 432.57 641.952 432.821C641.335 433.068 640.621 433.192 639.811 433.192ZM654.679 423.182V431.121H656.245V436.158H653.599V433H646.094V423.182H648.696V430.859H652.109V423.182H654.679ZM660.526 429.408L664.061 423.182H666.746V433H664.15V426.755L660.628 433H657.925V423.182H660.526V429.408ZM674.681 433V425.317H672.84C672.342 425.317 671.963 425.432 671.703 425.662C671.443 425.892 671.315 426.165 671.319 426.48C671.315 426.8 671.438 427.07 671.69 427.292C671.945 427.509 672.32 427.618 672.815 427.618H675.589V429.459H672.815C671.975 429.459 671.249 429.331 670.635 429.075C670.021 428.82 669.548 428.464 669.216 428.008C668.884 427.548 668.72 427.013 668.724 426.403C668.72 425.764 668.884 425.204 669.216 424.722C669.548 424.237 670.024 423.859 670.642 423.591C671.264 423.318 671.997 423.182 672.84 423.182H677.219V433H674.681ZM668.443 433L671.172 427.886H673.774L671.051 433H668.443Z" fill="#345988"/>
<rect x="380.5" y="280.5" width="134" height="36" rx="7.5" fill="white"/>
<rect x="380.5" y="280.5" width="134" height="36" rx="7.5" stroke="#345988"/>
<path d="M405.138 305V291.909H407.906V297.31H413.524V291.909H416.286V305H413.524V299.592H407.906V305H405.138ZM422.952 305.192C421.96 305.192 421.101 304.981 420.376 304.559C419.656 304.133 419.1 303.54 418.708 302.782C418.316 302.019 418.12 301.135 418.12 300.129C418.12 299.115 418.316 298.229 418.708 297.47C419.1 296.707 419.656 296.115 420.376 295.693C421.101 295.267 421.96 295.054 422.952 295.054C423.945 295.054 424.802 295.267 425.522 295.693C426.246 296.115 426.805 296.707 427.197 297.47C427.589 298.229 427.785 299.115 427.785 300.129C427.785 301.135 427.589 302.019 427.197 302.782C426.805 303.54 426.246 304.133 425.522 304.559C424.802 304.981 423.945 305.192 422.952 305.192ZM422.965 303.082C423.417 303.082 423.794 302.955 424.097 302.699C424.399 302.439 424.627 302.085 424.781 301.638C424.938 301.19 425.017 300.681 425.017 300.11C425.017 299.539 424.938 299.03 424.781 298.582C424.627 298.135 424.399 297.781 424.097 297.521C423.794 297.261 423.417 297.131 422.965 297.131C422.509 297.131 422.126 297.261 421.815 297.521C421.508 297.781 421.276 298.135 421.118 298.582C420.964 299.03 420.888 299.539 420.888 300.11C420.888 300.681 420.964 301.19 421.118 301.638C421.276 302.085 421.508 302.439 421.815 302.699C422.126 302.955 422.509 303.082 422.965 303.082ZM429.555 308.682V295.182H432.24V296.831H432.362C432.481 296.567 432.653 296.298 432.879 296.026C433.109 295.749 433.408 295.518 433.774 295.335C434.145 295.148 434.605 295.054 435.155 295.054C435.871 295.054 436.531 295.241 437.136 295.616C437.741 295.987 438.225 296.548 438.587 297.298C438.95 298.043 439.131 298.979 439.131 300.104C439.131 301.199 438.954 302.124 438.6 302.878C438.251 303.628 437.773 304.197 437.168 304.585C436.567 304.968 435.894 305.16 435.148 305.16C434.62 305.16 434.17 305.072 433.8 304.898C433.433 304.723 433.133 304.504 432.898 304.239C432.664 303.971 432.485 303.7 432.362 303.428H432.278V308.682H429.555ZM432.221 300.091C432.221 300.675 432.302 301.184 432.464 301.619C432.626 302.053 432.86 302.392 433.167 302.635C433.474 302.874 433.847 302.993 434.286 302.993C434.729 302.993 435.104 302.871 435.411 302.629C435.717 302.381 435.95 302.04 436.107 301.606C436.269 301.167 436.35 300.662 436.35 300.091C436.35 299.524 436.271 299.026 436.114 298.595C435.956 298.165 435.724 297.828 435.417 297.585C435.11 297.342 434.733 297.221 434.286 297.221C433.842 297.221 433.467 297.338 433.161 297.572C432.858 297.807 432.626 298.139 432.464 298.57C432.302 299 432.221 299.507 432.221 300.091ZM440.946 305V295.182H445.133C446.343 295.182 447.3 295.412 448.003 295.872C448.706 296.332 449.058 296.987 449.058 297.835C449.058 298.367 448.859 298.81 448.463 299.164C448.067 299.518 447.517 299.756 446.814 299.88C447.402 299.923 447.903 300.057 448.316 300.283C448.734 300.504 449.051 300.792 449.268 301.146C449.49 301.499 449.601 301.891 449.601 302.322C449.601 302.88 449.452 303.359 449.153 303.76C448.859 304.161 448.427 304.467 447.856 304.68C447.289 304.893 446.597 305 445.778 305H440.946ZM443.484 302.961H445.778C446.158 302.961 446.454 302.871 446.667 302.692C446.884 302.509 446.993 302.26 446.993 301.945C446.993 301.595 446.884 301.32 446.667 301.12C446.454 300.92 446.158 300.82 445.778 300.82H443.484V302.961ZM443.484 299.222H445.19C445.463 299.222 445.695 299.183 445.887 299.107C446.083 299.026 446.232 298.911 446.335 298.761C446.441 298.612 446.494 298.435 446.494 298.231C446.494 297.928 446.373 297.692 446.13 297.521C445.887 297.351 445.555 297.266 445.133 297.266H443.484V299.222ZM455.792 305.192C454.782 305.192 453.912 304.987 453.184 304.578C452.459 304.165 451.901 303.581 451.509 302.827C451.117 302.068 450.921 301.171 450.921 300.136C450.921 299.126 451.117 298.239 451.509 297.477C451.901 296.714 452.453 296.119 453.164 295.693C453.88 295.267 454.72 295.054 455.683 295.054C456.331 295.054 456.934 295.158 457.492 295.367C458.054 295.572 458.544 295.881 458.962 296.294C459.384 296.707 459.712 297.227 459.946 297.854C460.181 298.476 460.298 299.205 460.298 300.04V300.788H452.007V299.1H457.735C457.735 298.708 457.65 298.361 457.479 298.058C457.309 297.756 457.072 297.519 456.77 297.349C456.471 297.174 456.124 297.087 455.728 297.087C455.314 297.087 454.948 297.183 454.628 297.374C454.313 297.562 454.066 297.815 453.887 298.135C453.708 298.45 453.616 298.802 453.612 299.19V300.794C453.612 301.28 453.701 301.7 453.88 302.053C454.064 302.407 454.321 302.68 454.654 302.871C454.986 303.063 455.38 303.159 455.836 303.159C456.139 303.159 456.416 303.116 456.667 303.031C456.919 302.946 457.134 302.818 457.313 302.648C457.492 302.477 457.628 302.268 457.722 302.021L460.24 302.188C460.113 302.793 459.85 303.321 459.454 303.773C459.062 304.22 458.555 304.57 457.933 304.821C457.315 305.068 456.601 305.192 455.792 305.192ZM468.799 295.182V297.323H464.721V305H462.075V295.182H468.799ZM473.061 301.408L476.596 295.182H479.281V305H476.686V298.755L473.164 305H470.46V295.182H473.061V301.408ZM487.216 305V297.317H485.376C484.877 297.317 484.498 297.432 484.238 297.662C483.978 297.892 483.85 298.165 483.854 298.48C483.85 298.8 483.974 299.07 484.225 299.292C484.481 299.509 484.856 299.618 485.35 299.618H488.124V301.459H485.35C484.51 301.459 483.784 301.331 483.17 301.075C482.557 300.82 482.084 300.464 481.751 300.008C481.419 299.548 481.255 299.013 481.259 298.403C481.255 297.764 481.419 297.204 481.751 296.722C482.084 296.237 482.559 295.859 483.177 295.591C483.799 295.318 484.532 295.182 485.376 295.182H489.754V305H487.216ZM480.978 305L483.707 299.886H486.309L483.586 305H480.978Z" fill="#345988"/>
<rect x="117.5" y="138.5" width="137" height="36" rx="7.5" fill="white"/>
<rect x="117.5" y="138.5" width="137" height="36" rx="7.5" stroke="#345988"/>
<path d="M142.138 149.909H144.899V158.142H145.008L150.665 149.909H153.087V163H150.32V154.761H150.224L144.535 163H142.138V149.909ZM159.759 163.192C158.753 163.192 157.888 162.979 157.164 162.553C156.444 162.122 155.89 161.526 155.502 160.763C155.118 160 154.927 159.122 154.927 158.129C154.927 157.124 155.121 156.241 155.508 155.483C155.9 154.72 156.456 154.126 157.177 153.7C157.897 153.269 158.753 153.054 159.746 153.054C160.603 153.054 161.353 153.21 161.996 153.521C162.64 153.832 163.149 154.268 163.524 154.831C163.899 155.393 164.106 156.054 164.144 156.812H161.574C161.502 156.322 161.31 155.928 160.999 155.63C160.692 155.327 160.29 155.176 159.791 155.176C159.369 155.176 159.001 155.291 158.685 155.521C158.374 155.747 158.131 156.077 157.956 156.512C157.782 156.947 157.694 157.473 157.694 158.091C157.694 158.717 157.78 159.25 157.95 159.689C158.125 160.128 158.37 160.462 158.685 160.692C159.001 160.923 159.369 161.038 159.791 161.038C160.102 161.038 160.381 160.974 160.628 160.846C160.88 160.718 161.086 160.533 161.248 160.29C161.415 160.043 161.523 159.746 161.574 159.401H164.144C164.101 160.151 163.897 160.812 163.53 161.383C163.168 161.95 162.667 162.393 162.028 162.712C161.389 163.032 160.633 163.192 159.759 163.192ZM165.312 163L165.299 160.839H165.625C165.855 160.839 166.054 160.784 166.22 160.673C166.39 160.558 166.531 160.373 166.642 160.117C166.752 159.862 166.84 159.523 166.904 159.101C166.968 158.675 167.01 158.151 167.032 157.528L167.191 153.182H174.657V163H172.062V155.323H169.64L169.486 158.321C169.448 159.143 169.348 159.851 169.186 160.443C169.028 161.036 168.809 161.521 168.527 161.901C168.246 162.276 167.907 162.553 167.511 162.732C167.115 162.911 166.654 163 166.13 163H165.312ZM179.568 163.185C178.942 163.185 178.383 163.077 177.893 162.859C177.403 162.638 177.015 162.312 176.73 161.881C176.449 161.447 176.308 160.906 176.308 160.258C176.308 159.712 176.408 159.254 176.608 158.884C176.809 158.513 177.081 158.214 177.427 157.989C177.772 157.763 178.164 157.592 178.603 157.477C179.046 157.362 179.51 157.281 179.996 157.234C180.567 157.175 181.028 157.119 181.377 157.068C181.726 157.013 181.98 156.932 182.138 156.825C182.295 156.719 182.374 156.561 182.374 156.352V156.314C182.374 155.909 182.246 155.596 181.991 155.374C181.739 155.153 181.381 155.042 180.917 155.042C180.427 155.042 180.037 155.151 179.747 155.368C179.457 155.581 179.265 155.849 179.172 156.173L176.653 155.969C176.781 155.372 177.032 154.857 177.407 154.422C177.782 153.983 178.266 153.646 178.858 153.412C179.455 153.173 180.145 153.054 180.93 153.054C181.475 153.054 181.997 153.118 182.496 153.246C182.998 153.374 183.444 153.572 183.831 153.84C184.224 154.109 184.532 154.454 184.758 154.876C184.984 155.293 185.097 155.794 185.097 156.378V163H182.515V161.638H182.438C182.28 161.945 182.069 162.216 181.805 162.45C181.541 162.68 181.224 162.862 180.853 162.994C180.482 163.121 180.054 163.185 179.568 163.185ZM180.348 161.306C180.748 161.306 181.102 161.227 181.409 161.07C181.716 160.908 181.956 160.69 182.131 160.418C182.306 160.145 182.393 159.836 182.393 159.491V158.449C182.308 158.504 182.191 158.555 182.042 158.602C181.897 158.645 181.733 158.685 181.55 158.724C181.366 158.758 181.183 158.79 181 158.82C180.817 158.845 180.65 158.869 180.501 158.89C180.182 158.937 179.903 159.011 179.664 159.114C179.425 159.216 179.24 159.354 179.108 159.529C178.976 159.7 178.91 159.913 178.91 160.168C178.91 160.539 179.044 160.822 179.312 161.018C179.585 161.21 179.93 161.306 180.348 161.306ZM194.043 157.004V159.146H188.916V157.004H194.043ZM189.811 153.182V163H187.21V153.182H189.811ZM195.749 153.182V163H193.167V153.182H195.749ZM197.095 165.876V160.839H197.849C198.067 160.703 198.241 160.486 198.373 160.188C198.51 159.889 198.621 159.538 198.706 159.133C198.795 158.728 198.863 158.291 198.91 157.822C198.961 157.349 199.006 156.872 199.045 156.391L199.3 153.182H206.83V160.839H208.351V165.876H205.756V163H199.754V165.876H197.095ZM200.559 160.839H204.26V155.278H201.614L201.512 156.391C201.439 157.439 201.335 158.33 201.199 159.062C201.062 159.791 200.849 160.384 200.559 160.839ZM212.54 159.408L216.075 153.182H218.759V163H216.164V156.755L212.642 163H209.938V153.182H212.54V159.408ZM226.695 163V155.317H224.854C224.355 155.317 223.976 155.432 223.716 155.662C223.456 155.892 223.328 156.165 223.333 156.48C223.328 156.8 223.452 157.07 223.703 157.292C223.959 157.509 224.334 157.618 224.828 157.618H227.603V159.459H224.828C223.989 159.459 223.262 159.331 222.649 159.075C222.035 158.82 221.562 158.464 221.23 158.008C220.897 157.548 220.733 157.013 220.738 156.403C220.733 155.764 220.897 155.204 221.23 154.722C221.562 154.237 222.037 153.859 222.655 153.591C223.277 153.318 224.01 153.182 224.854 153.182H229.233V163H226.695ZM220.456 163L223.186 157.886H225.787L223.064 163H220.456Z" fill="#345988"/>
<rect x="380.5" y="496.5" width="104" height="36" rx="7.5" fill="white"/>
<rect x="380.5" y="496.5" width="104" height="36" rx="7.5" stroke="#345988"/>
<path d="M404.428 524.158V518.795H405.317C405.619 518.577 405.896 518.271 406.148 517.874C406.399 517.474 406.614 516.922 406.793 516.219C406.972 515.511 407.1 514.587 407.177 513.445L407.548 507.909H416.209V518.795H417.641V524.145H414.982V521H407.087V524.158H404.428ZM408.513 518.795H413.55V510.191H410.04L409.836 513.445C409.781 514.31 409.689 515.077 409.561 515.746C409.438 516.415 409.286 517.001 409.107 517.504C408.933 518.002 408.734 518.433 408.513 518.795ZM422.072 521.185C421.445 521.185 420.887 521.077 420.397 520.859C419.907 520.638 419.519 520.312 419.234 519.881C418.953 519.447 418.812 518.906 418.812 518.258C418.812 517.712 418.912 517.254 419.112 516.884C419.313 516.513 419.585 516.214 419.931 515.989C420.276 515.763 420.668 515.592 421.107 515.477C421.55 515.362 422.014 515.281 422.5 515.234C423.071 515.175 423.531 515.119 423.881 515.068C424.23 515.013 424.484 514.932 424.642 514.825C424.799 514.719 424.878 514.561 424.878 514.352V514.314C424.878 513.909 424.75 513.596 424.494 513.374C424.243 513.153 423.885 513.042 423.421 513.042C422.931 513.042 422.541 513.151 422.251 513.368C421.961 513.581 421.769 513.849 421.676 514.173L419.157 513.969C419.285 513.372 419.536 512.857 419.911 512.422C420.286 511.983 420.77 511.646 421.362 511.412C421.959 511.173 422.649 511.054 423.433 511.054C423.979 511.054 424.501 511.118 424.999 511.246C425.502 511.374 425.948 511.572 426.335 511.84C426.727 512.109 427.036 512.454 427.262 512.876C427.488 513.293 427.601 513.794 427.601 514.378V521H425.019V519.638H424.942C424.784 519.945 424.573 520.216 424.309 520.45C424.045 520.68 423.727 520.862 423.357 520.994C422.986 521.121 422.558 521.185 422.072 521.185ZM422.852 519.306C423.252 519.306 423.606 519.227 423.913 519.07C424.22 518.908 424.46 518.69 424.635 518.418C424.81 518.145 424.897 517.836 424.897 517.491V516.449C424.812 516.504 424.695 516.555 424.546 516.602C424.401 516.645 424.237 516.685 424.053 516.724C423.87 516.758 423.687 516.79 423.504 516.82C423.32 516.845 423.154 516.869 423.005 516.89C422.686 516.937 422.406 517.011 422.168 517.114C421.929 517.216 421.744 517.354 421.612 517.529C421.48 517.7 421.414 517.913 421.414 518.168C421.414 518.539 421.548 518.822 421.816 519.018C422.089 519.21 422.434 519.306 422.852 519.306ZM436.547 515.004V517.146H431.42V515.004H436.547ZM432.315 511.182V521H429.714V511.182H432.315ZM438.253 511.182V521H435.671V511.182H438.253ZM442.968 517.408L446.502 511.182H449.187V521H446.592V514.755L443.07 521H440.366V511.182H442.968V517.408ZM457.123 521V513.317H455.282C454.783 513.317 454.404 513.432 454.144 513.662C453.884 513.892 453.756 514.165 453.76 514.48C453.756 514.8 453.88 515.07 454.131 515.292C454.387 515.509 454.762 515.618 455.256 515.618H458.03V517.459H455.256C454.417 517.459 453.69 517.331 453.077 517.075C452.463 516.82 451.99 516.464 451.657 516.008C451.325 515.548 451.161 515.013 451.165 514.403C451.161 513.764 451.325 513.204 451.657 512.722C451.99 512.237 452.465 511.859 453.083 511.591C453.705 511.318 454.438 511.182 455.282 511.182H459.66V521H457.123ZM450.884 521L453.613 515.886H456.215L453.492 521H450.884Z" fill="#345988"/>
<rect x="0.5" y="578.5" width="138" height="36" rx="7.5" fill="white"/>
<rect x="0.5" y="578.5" width="138" height="36" rx="7.5" stroke="#345988"/>
<path d="M25.1378 589.909H27.8991V598.142H28.0078L33.6648 589.909H36.0874V603H33.3196V594.761H33.2237L27.5348 603H25.1378V589.909ZM38.323 606.682V593.182H41.0076V594.831H41.1291C41.2484 594.567 41.421 594.298 41.6468 594.026C41.877 593.749 42.1752 593.518 42.5417 593.335C42.9125 593.148 43.3727 593.054 43.9224 593.054C44.6383 593.054 45.2988 593.241 45.9039 593.616C46.5091 593.987 46.9927 594.548 47.3549 595.298C47.7172 596.043 47.8983 596.979 47.8983 598.104C47.8983 599.199 47.7214 600.124 47.3677 600.878C47.0183 601.628 46.541 602.197 45.9359 602.585C45.3351 602.968 44.6618 603.16 43.916 603.16C43.3876 603.16 42.938 603.072 42.5673 602.898C42.2008 602.723 41.9004 602.504 41.666 602.239C41.4316 601.971 41.2527 601.7 41.1291 601.428H41.046V606.682H38.323ZM40.9885 598.091C40.9885 598.675 41.0694 599.184 41.2314 599.619C41.3933 600.053 41.6277 600.392 41.9345 600.635C42.2413 600.874 42.6142 600.993 43.0531 600.993C43.4963 600.993 43.8713 600.871 44.1781 600.629C44.4849 600.381 44.7172 600.04 44.8748 599.606C45.0368 599.167 45.1177 598.662 45.1177 598.091C45.1177 597.524 45.0389 597.026 44.8812 596.595C44.7235 596.165 44.4913 595.828 44.1845 595.585C43.8777 595.342 43.5005 595.221 43.0531 595.221C42.6099 595.221 42.2349 595.338 41.9281 595.572C41.6255 595.807 41.3933 596.139 41.2314 596.57C41.0694 597 40.9885 597.507 40.9885 598.091ZM49.1383 603L49.1255 600.839H49.4515C49.6816 600.839 49.8798 600.784 50.046 600.673C50.2164 600.558 50.3571 600.373 50.4679 600.117C50.5787 599.862 50.666 599.523 50.7299 599.101C50.7939 598.675 50.8365 598.151 50.8578 597.528L51.0176 593.182H58.4835V603H55.8883V595.323H53.4657L53.3123 598.321C53.274 599.143 53.1738 599.851 53.0119 600.443C52.8542 601.036 52.6348 601.521 52.3535 601.901C52.0723 602.276 51.7335 602.553 51.3372 602.732C50.9409 602.911 50.4806 603 49.9565 603H49.1383ZM63.3942 603.185C62.7678 603.185 62.2095 603.077 61.7195 602.859C61.2294 602.638 60.8416 602.312 60.5561 601.881C60.2749 601.447 60.1342 600.906 60.1342 600.258C60.1342 599.712 60.2344 599.254 60.4347 598.884C60.6349 598.513 60.9077 598.214 61.2528 597.989C61.598 597.763 61.9901 597.592 62.429 597.477C62.8722 597.362 63.3366 597.281 63.8224 597.234C64.3935 597.175 64.8537 597.119 65.2031 597.068C65.5526 597.013 65.8061 596.932 65.9638 596.825C66.1214 596.719 66.2003 596.561 66.2003 596.352V596.314C66.2003 595.909 66.0724 595.596 65.8168 595.374C65.5653 595.153 65.2074 595.042 64.7429 595.042C64.2528 595.042 63.8629 595.151 63.5732 595.368C63.2834 595.581 63.0916 595.849 62.9979 596.173L60.4794 595.969C60.6072 595.372 60.8587 594.857 61.2337 594.422C61.6087 593.983 62.0923 593.646 62.6847 593.412C63.2813 593.173 63.9716 593.054 64.7557 593.054C65.3011 593.054 65.8232 593.118 66.3217 593.246C66.8246 593.374 67.2699 593.572 67.6577 593.84C68.0497 594.109 68.3587 594.454 68.5845 594.876C68.8104 595.293 68.9233 595.794 68.9233 596.378V603H66.3409V601.638H66.2642C66.1065 601.945 65.8956 602.216 65.6314 602.45C65.3672 602.68 65.0497 602.862 64.679 602.994C64.3082 603.121 63.88 603.185 63.3942 603.185ZM64.174 601.306C64.5746 601.306 64.9283 601.227 65.2351 601.07C65.5419 600.908 65.7827 600.69 65.9574 600.418C66.1321 600.145 66.2195 599.836 66.2195 599.491V598.449C66.1342 598.504 66.017 598.555 65.8679 598.602C65.723 598.645 65.5589 598.685 65.3757 598.724C65.1925 598.758 65.0092 598.79 64.826 598.82C64.6428 598.845 64.4766 598.869 64.3274 598.89C64.0078 598.937 63.7287 599.011 63.4901 599.114C63.2514 599.216 63.0661 599.354 62.9339 599.529C62.8018 599.7 62.7358 599.913 62.7358 600.168C62.7358 600.539 62.87 600.822 63.1385 601.018C63.4112 601.21 63.7564 601.306 64.174 601.306ZM77.869 597.004V599.146H72.7425V597.004H77.869ZM73.6374 593.182V603H71.0359V593.182H73.6374ZM79.5756 593.182V603H76.9933V593.182H79.5756ZM80.9212 605.876V600.839H81.6754C81.8928 600.703 82.0675 600.486 82.1996 600.188C82.3359 599.889 82.4467 599.538 82.532 599.133C82.6214 598.728 82.6896 598.291 82.7365 597.822C82.7876 597.349 82.8324 596.872 82.8707 596.391L83.1264 593.182H90.6562V600.839H92.1776V605.876H89.5824V603H83.5803V605.876H80.9212ZM84.3857 600.839H88.0866V595.278H85.4403L85.3381 596.391C85.2656 597.439 85.1612 598.33 85.0249 599.062C84.8885 599.791 84.6754 600.384 84.3857 600.839ZM96.3659 599.408L99.9007 593.182H102.585V603H99.9902V596.755L96.4682 603H93.7644V593.182H96.3659V599.408ZM110.521 603V595.317H108.68C108.182 595.317 107.802 595.432 107.542 595.662C107.282 595.892 107.155 596.165 107.159 596.48C107.155 596.8 107.278 597.07 107.53 597.292C107.785 597.509 108.16 597.618 108.655 597.618H111.429V599.459H108.655C107.815 599.459 107.089 599.331 106.475 599.075C105.861 598.82 105.388 598.464 105.056 598.008C104.724 597.548 104.559 597.013 104.564 596.403C104.559 595.764 104.724 595.204 105.056 594.722C105.388 594.237 105.863 593.859 106.481 593.591C107.104 593.318 107.836 593.182 108.68 593.182H113.059V603H110.521ZM104.282 603L107.012 597.886H109.613L106.89 603H104.282Z" fill="#345988"/>
</svg>
