<svg width="87" height="86" viewBox="0 0 87 86" fill="none" xmlns="http://www.w3.org/2000/svg">
<path d="M43.4246 78.8971C23.5589 78.8971 7.48633 62.7249 7.48633 42.9252C7.48633 23.1256 23.5589 7.10449 43.4246 7.10449C63.2904 7.10449 79.5278 23.1256 79.5278 42.9252C79.3779 62.876 63.3054 78.8971 43.4246 78.8971ZM43.4246 10.7319C25.5229 10.7319 10.9647 25.2416 10.9647 43.0764C10.9647 60.9112 25.5229 75.572 43.4246 75.572C61.3263 75.572 76.0345 61.0623 76.0345 43.0764C75.8845 25.2416 61.3263 10.7319 43.4246 10.7319Z" fill="black"/>
<path d="M43.4251 86.001C19.7661 86.001 0.5 66.8059 0.5 43.0766C0.5 30.834 5.80753 19.0449 15.2082 10.8832C15.9728 10.2787 17.0223 10.2787 17.637 11.0344C18.2367 11.7901 18.2367 12.8481 17.4871 13.4526C8.98603 21.0098 3.99336 31.7409 3.99336 42.9254C3.99336 64.6899 21.7301 82.3736 43.4251 82.3736C65.12 82.3736 83.0066 64.6899 83.0066 42.9254C83.0066 21.1609 65.2549 3.62838 43.4251 3.62838C40.3965 3.62838 37.2029 3.93069 34.1743 4.6864C33.2598 4.83754 32.3602 4.3841 32.0453 3.3261C31.7454 2.26811 32.3452 1.5124 33.4097 1.21012C36.7531 0.454408 40.0816 0.000976562 43.4251 0.000976562C67.234 0.000976562 86.5 19.1961 86.5 42.7743C86.5 66.3525 67.0841 86.001 43.4251 86.001Z" fill="black"/>
<path d="M39.3314 78.7455H39.1815C33.724 78.1409 28.2665 76.1761 23.7087 73.1532C19.1508 70.1304 15.2226 66.2007 12.4789 61.5153C12.179 61.0618 12.179 60.4573 12.3289 60.0038C12.4789 59.5504 12.9287 59.097 13.5434 58.9458C14.6079 58.6436 15.3575 58.6436 16.2721 58.6436C18.4011 58.6436 19.9154 59.3993 21.4297 60.155C22.4942 60.6084 23.4088 61.213 24.7732 61.6664C29.3311 63.0267 30.0807 65.2938 30.3806 67.5609C30.5305 68.4678 30.5305 68.7701 30.9803 68.9212C30.9803 68.9212 31.1302 69.0724 31.595 69.0724C32.6595 69.0724 34.1738 68.6189 35.2383 68.3167C35.3882 68.3167 35.5382 68.1655 35.5382 68.1655C35.6381 68.1655 35.7381 68.1151 35.8381 68.0144C37.9671 67.4098 40.5458 66.6541 42.36 66.6541C44.1741 66.6541 44.9388 67.4098 45.2387 68.1655C46.0033 69.8281 44.639 71.3395 44.1742 71.9441C43.2596 73.0021 42.5099 73.7578 41.8952 74.3624C41.4454 74.9669 40.9806 75.4204 40.8307 75.7226C40.8307 75.8738 40.8307 76.1761 40.9807 76.6295C40.9807 76.7806 41.1306 76.9318 41.1306 77.0829C41.1306 77.9898 40.3659 78.7455 39.3164 78.7455H39.3314ZM17.0368 61.9687C21.8945 68.7701 29.3161 73.4555 37.5173 74.9669C37.8171 73.7578 38.5818 72.8509 39.4814 71.7929C39.9311 71.3395 40.3959 70.7349 40.9956 70.1304C39.4813 70.4326 37.6522 70.8861 36.9025 71.1884C36.7526 71.1884 36.6027 71.3395 36.6027 71.3395C36.5027 71.3395 36.4028 71.3899 36.3028 71.4907C35.0884 71.9441 33.2742 72.3975 31.595 72.3975C30.5305 72.3975 29.6159 72.0952 28.8663 71.6418C27.352 70.5838 27.2021 69.0724 26.8872 67.8632C26.7373 66.5029 26.5873 65.5961 23.8586 64.8404C22.1944 64.387 20.83 63.6313 19.7655 63.1778C18.701 62.5733 17.9514 62.1198 17.0368 61.9687Z" fill="black"/>
<path d="M26.6041 51.994C25.5396 51.994 24.3252 51.5406 22.9608 50.0292C19.9322 47.1575 20.8318 43.2278 21.2966 40.9607C21.4465 40.3561 21.5965 39.4492 21.5965 39.2981C21.2966 37.7867 18.4179 37.1821 16.139 37.1821C13.4103 37.1821 11.4312 37.0309 9.76696 36.5775C8.85239 36.2752 8.25267 35.3684 8.55253 34.4615C8.85239 33.5547 9.76694 32.9501 10.6815 33.2524C12.0459 33.5547 13.8601 33.7058 16.139 33.7058C21.1467 33.7058 24.3252 35.5195 25.0898 38.5424C25.2398 39.4492 25.0898 40.5072 24.79 41.7164C24.1902 44.1347 23.8754 46.0995 25.4047 47.4598C26.1693 48.3666 26.6191 48.3666 26.6191 48.3666C26.769 48.3666 27.2339 48.0643 27.6836 47.9132C28.2984 47.6109 29.048 47.1575 29.9626 46.8552C32.0916 46.2506 33.6059 46.4018 34.8203 46.5529C36.4845 46.7041 37.3991 46.8552 39.6781 43.8324C40.8925 42.1698 41.6421 41.7164 42.4068 41.2629C42.7066 41.1118 43.0215 40.9607 43.4713 40.5072C43.9211 40.0538 43.9211 38.9958 43.4713 37.4844C43.0215 35.8218 42.1069 33.857 41.5072 32.1944C41.0574 31.2875 40.7425 30.3807 40.4427 29.7761C39.5281 27.0556 39.0783 25.6953 39.0783 24.335C39.2282 22.8236 39.9929 21.9167 41.2073 20.7076C41.6571 20.2541 42.1219 19.6496 42.8716 18.8939C41.957 19.045 40.7426 19.3473 38.7785 19.9519C38.6286 19.9519 38.4786 20.103 38.3287 20.103C38.0288 20.103 37.8789 20.2541 37.579 20.2541C35.0002 21.0099 32.7213 21.7656 30.9071 20.4053C29.3928 19.1962 29.3928 16.929 29.5428 15.4176C29.8426 13.6039 29.8426 12.2436 29.6927 11.3367C29.5428 10.4299 30.2924 9.52304 31.207 9.37189C32.1215 9.22075 33.0211 9.97646 33.1861 10.8833C33.336 12.2436 33.336 13.755 33.0361 15.871C32.8862 17.0802 33.0361 17.5336 33.1861 17.6847C33.6359 17.8359 35.465 17.2313 36.5145 16.929C36.8144 16.929 36.9643 16.7779 37.2792 16.7779C37.3791 16.7779 37.4791 16.7275 37.579 16.6267C42.4368 15.1153 45.6153 14.6619 46.8297 16.4756C47.8942 18.1381 46.3799 19.9519 45.9151 20.5564C45.0006 21.6144 44.2509 22.3701 43.6362 22.9747C42.7216 23.8816 42.5717 24.1839 42.5717 24.335C42.5717 24.9396 43.1714 26.6021 43.7862 28.4158C43.9361 28.8693 44.2359 29.625 44.7007 30.5318C46.5149 34.4615 48.7938 39.7515 46.0651 42.6232C45.3004 43.3789 44.7007 43.6812 44.4009 43.9835C43.9511 44.2858 43.6362 44.4369 42.7366 45.6461C39.5581 49.878 37.4291 50.0292 34.7004 49.7269C33.6359 49.5758 32.5713 49.5758 31.207 50.0292C30.7572 50.1803 30.2924 50.4826 29.8426 50.7849C28.7781 51.3895 27.7136 51.994 26.6641 51.994H26.6041Z" fill="black"/>
<path d="M72.4064 42.321C71.192 42.321 69.9776 41.7165 68.6132 40.3562C65.5846 37.4845 66.4842 33.5548 66.949 31.2876C67.0989 30.6831 67.2488 29.9274 67.2488 29.6251C66.6491 27.8114 64.2203 27.5091 60.577 27.3579C57.0836 27.2068 53.2903 27.0556 51.4762 24.0328C49.8119 20.8588 52.2408 17.6848 54.055 15.4177C54.6697 14.662 55.1195 14.0574 55.4193 13.4528C55.5693 13.1505 55.7192 12.8483 55.8691 12.546C56.0191 12.2437 56.169 11.9414 56.3189 11.6391C56.4688 11.1857 56.7687 10.8834 57.2335 10.5811C57.6833 10.43 58.1481 10.43 58.5979 10.5811C64.0553 13.1506 68.7631 16.9291 72.2415 21.7657C75.8848 26.6022 78.1638 32.4968 79.0633 38.5425C79.0633 38.9959 78.9134 39.6005 78.6136 39.9027C78.3137 40.3562 77.8639 40.5073 77.2492 40.5073C77.2492 40.5073 76.9493 40.5073 76.9493 40.6585C76.7994 40.6585 76.6495 40.6585 76.4995 40.8096C76.0498 40.9607 75.585 41.263 75.1352 41.5653C74.5355 41.7165 73.6209 42.321 72.4064 42.321ZM54.6547 22.3702C55.4193 23.7305 58.148 23.8816 60.7268 24.0328C64.5201 24.1839 69.3779 24.3351 70.7422 28.8694V29.0205C70.8922 29.9273 70.7422 30.9854 70.4423 32.1945C69.8276 34.6128 69.5278 36.5776 71.0421 37.9379C71.9566 38.8448 72.2565 38.8447 72.2565 38.8447C72.4064 38.8447 72.8562 38.5425 73.321 38.3913C73.7708 38.089 74.3855 37.6356 75.3001 37.4845C73.4859 27.8114 67.2638 19.3474 58.7628 14.662C58.7628 14.7627 58.7128 14.8635 58.6128 14.9642C58.6128 14.9642 58.6129 15.1154 58.4629 15.1154C58.0131 15.8711 57.3984 16.778 56.7987 17.6848C55.7342 19.1962 54.07 21.1611 54.6697 22.3702H54.6547Z" fill="black"/>
<path d="M54.0559 77.3864C53.7561 77.3864 53.2913 77.2353 52.9914 77.0842C52.3917 76.6307 51.9269 76.0262 51.777 75.5727C50.1127 72.5499 52.5416 69.3759 54.2059 66.9576C54.8056 66.2019 55.4203 65.4462 55.7201 64.8416C56.9346 62.4234 57.8492 58.6448 57.0845 55.622C56.7846 54.1105 56.4848 52.9014 57.2344 51.6922C57.8342 50.4831 59.0486 49.8785 60.7278 49.4251C61.7923 49.1228 62.8568 48.9717 63.7564 48.9717C66.0354 48.9717 67.5497 49.7274 68.914 50.6343C69.8286 51.0877 70.8931 51.6923 72.2574 52.1457C74.3865 52.7502 75.9008 53.6571 76.8003 55.0174C77.1002 55.4708 77.2501 56.0754 76.9503 56.6799C74.9712 61.5165 71.9426 65.8996 68.1494 69.3759C64.3561 73.0033 59.6483 75.7239 54.6556 77.2353C54.3558 77.2353 54.2058 77.3864 54.0409 77.3864H54.0559ZM60.1131 53.3548C60.1131 53.506 60.1131 53.9594 60.263 54.8662C61.0277 58.1914 60.413 62.4234 58.5988 66.3531C58.149 67.2599 57.5343 68.0156 56.7846 69.0736C55.5702 70.585 54.2058 72.3988 54.5057 73.6079C62.6919 70.585 69.5137 64.2371 73.0071 56.3777C72.5573 56.0754 71.7927 55.7731 71.028 55.4708C69.3638 55.0174 68.1494 54.2617 67.0849 53.8083C65.7205 53.0525 64.9558 52.5991 63.5915 52.5991C62.9918 52.5991 62.2271 52.7502 61.4625 52.9014C60.5479 53.0525 60.2481 53.2037 60.0981 53.3548H60.1131Z" fill="black"/>
<path d="M19.7665 14.2089C16.8879 14.2089 14.459 11.7906 14.459 8.91889C14.459 6.04718 16.8879 3.62891 19.7665 3.62891C22.6452 3.62891 25.074 6.04718 25.074 8.91889C24.9241 11.7906 22.6452 14.2089 19.7665 14.2089ZM19.7665 7.25634C18.852 7.25634 17.9523 8.01204 17.9523 9.07004C17.9523 9.97689 18.717 10.8837 19.7665 10.8837C20.6811 10.8837 21.5807 10.128 21.5807 9.07004C21.4307 8.01204 20.6661 7.25634 19.7665 7.25634Z" fill="black"/>
</svg>
