<svg width="91" height="86" viewBox="0 0 91 86" fill="none" xmlns="http://www.w3.org/2000/svg">
<path d="M88.7777 81.5912H75.0826C75.425 80.4044 75.2521 79.2193 74.9097 78.3716L66.8645 56.5007L88.0928 38.6989C92.5443 35.4776 90.1473 28.5264 84.6669 28.5264C84.4957 28.5264 86.2078 28.3568 58.6448 31.0695C50.2555 2.75603 50.5979 3.94282 50.5979 3.94282C48.8858 -1.31297 41.3543 -1.31297 39.6422 3.94282C39.6422 3.94282 39.9829 2.75603 31.5954 31.0695C4.20353 28.3568 5.91562 28.5264 5.74441 28.5264C0.267403 28.5264 -2.13121 35.4776 2.32024 38.6989L23.3773 56.5007C14.9897 79.2193 15.3305 78.3716 15.3305 78.3716C14.9897 79.3889 14.9897 80.5756 15.1592 81.5912H7.45482C6.25635 81.5912 5.22906 82.6102 5.22906 83.7952C5.22906 84.982 6.25466 86.001 7.45482 86.001H88.7742C89.9727 86.001 91 84.982 91 83.7952C91.0034 82.6085 89.9761 81.5912 88.7777 81.5912ZM19.6141 80.913C19.2717 80.5739 19.2716 80.0653 19.4412 79.7263L28.0017 56.499C28.3441 55.6513 28.0016 54.8036 27.3185 54.1255C12.2521 41.4098 4.89177 35.3063 4.89177 35.3063C4.20693 34.7977 4.20692 33.95 4.37813 33.7805C4.54934 33.4431 4.72052 32.7632 5.74778 32.7632L33.1397 35.4759C34.1652 35.6471 35.1941 34.9672 35.3654 33.9517L43.9258 5.29913C44.2682 4.45142 44.9531 4.28187 45.2955 4.28187C45.6379 4.28187 46.3244 4.45142 46.6669 5.29913L55.2274 33.9517C55.5681 34.9689 56.4258 35.6471 57.4531 35.4759L84.8449 32.7632C85.701 32.7632 86.0434 33.4414 86.2146 33.7805C86.3875 34.1195 86.3875 34.7994 85.701 35.3063C85.5281 35.3063 77.9965 41.7489 63.2742 54.295C62.5894 54.8036 62.4182 55.8192 62.5894 56.6669L71.1498 79.8941C71.3227 80.4027 71.1498 80.7418 70.9786 81.0809C70.6362 81.42 70.2938 81.759 69.7802 81.759C69.4378 81.759 69.2665 81.5878 68.9241 81.42C68.7529 81.2487 70.1226 82.0965 46.4957 68.0262C45.8125 67.6871 44.9565 67.6871 44.2716 68.0262C20.6447 82.0981 22.0161 81.2504 21.8449 81.42C21.5024 81.5895 21.3313 81.759 20.9889 81.759C20.2972 81.5912 19.7853 81.2521 19.6141 80.913ZM60.8722 81.5912H29.373L45.1226 72.2664L60.8722 81.5912Z" fill="black"/>
<path d="M5.40544 13.6055C6.63612 13.6055 7.63115 14.5922 7.63115 15.8095C7.63115 17.0268 6.63442 18.0135 5.40544 18.0135C4.17646 18.0135 3.17969 17.0268 3.17969 15.8095C3.17969 14.5922 4.17816 13.6055 5.40544 13.6055Z" fill="black"/>
<path d="M11.7372 13.6055C12.9662 13.6055 13.9629 14.5922 13.9629 15.8095C13.9629 17.0268 12.9662 18.0135 11.7372 18.0135C10.5065 18.0135 9.50977 17.0268 9.50977 15.8095C9.50977 14.5922 10.5065 13.6055 11.7372 13.6055Z" fill="black"/>
<path d="M18.2435 13.6055C19.4742 13.6055 20.471 14.5922 20.471 15.8095C20.471 17.0268 19.4742 18.0135 18.2435 18.0135C17.0145 18.0135 16.0195 17.0268 16.0195 15.8095C16.0195 14.5922 17.0162 13.6055 18.2435 13.6055Z" fill="black"/>
<path d="M24.5792 18.0135C25.8085 18.0135 26.805 17.0267 26.805 15.8095C26.805 14.5922 25.8085 13.6055 24.5792 13.6055C23.35 13.6055 22.3535 14.5922 22.3535 15.8095C22.3535 17.0267 23.35 18.0135 24.5792 18.0135Z" fill="black"/>
<path d="M31.0848 13.6055C32.3138 13.6055 33.3105 14.5922 33.3105 15.8095C33.3105 17.0268 32.3138 18.0135 31.0848 18.0135C29.8542 18.0135 28.8574 17.0268 28.8574 15.8095C28.8574 14.5922 29.8542 13.6055 31.0848 13.6055Z" fill="black"/>
<path d="M61.0458 13.6055C62.2748 13.6055 63.2715 14.5922 63.2715 15.8095C63.2715 17.0268 62.2748 18.0135 61.0458 18.0135C59.8151 18.0135 58.8184 17.0268 58.8184 15.8095C58.8184 14.5922 59.8151 13.6055 61.0458 13.6055Z" fill="black"/>
<path d="M67.3801 13.6055C68.6107 13.6055 69.6075 14.5922 69.6075 15.8095C69.6075 17.0268 68.6107 18.0135 67.3801 18.0135C66.1511 18.0135 65.1543 17.0268 65.1543 15.8095C65.1543 14.5922 66.1511 13.6055 67.3801 13.6055Z" fill="black"/>
<path d="M73.8839 18.0135C75.1131 18.0135 76.1097 17.0267 76.1097 15.8095C76.1097 14.5922 75.1131 13.6055 73.8839 13.6055C72.6547 13.6055 71.6582 14.5922 71.6582 15.8095C71.6582 17.0267 72.6547 18.0135 73.8839 18.0135Z" fill="black"/>
<path d="M80.2179 13.6055C81.4486 13.6055 82.4436 14.5922 82.4436 15.8095C82.4436 17.0268 81.4469 18.0135 80.2179 18.0135C78.9889 18.0135 77.9922 17.0268 77.9922 15.8095C77.9922 14.5922 78.9889 13.6055 80.2179 13.6055Z" fill="black"/>
<path d="M86.7238 13.6055C87.9544 13.6055 88.9512 14.5922 88.9512 15.8095C88.9512 17.0268 87.9544 18.0135 86.7238 18.0135C85.4948 18.0135 84.498 17.0268 84.498 15.8095C84.498 14.5922 85.4948 13.6055 86.7238 13.6055Z" fill="black"/>
</svg>
