<svg width="86" height="86" viewBox="0 0 86 86" fill="none" xmlns="http://www.w3.org/2000/svg">
<g id="_x31_923_x2C__Group_x2C__Leader_x2C__Leadership_x2C__People_x2C__Person">
<g id="Group">
<path id="Vector" d="M49.4092 31.7585C51.9415 29.7912 53.625 26.6997 53.625 23.1866C53.625 17.2846 48.8387 12.5068 42.9253 12.5068C37.012 12.5068 32.2256 17.2846 32.2256 23.1866C32.2256 26.6997 33.9093 29.7912 36.4555 31.7585C30.8204 34.2879 26.8828 39.9088 26.8828 46.5134V60.8467C26.8828 61.8303 27.7315 62.6735 28.7055 62.6735H34.0484V84.1735C34.0484 85.1572 34.8972 86.0003 35.8711 86.0003C36.8451 86.0003 37.7077 85.1572 37.7077 84.1735V55.3663C37.7077 54.3826 36.859 53.5395 35.8711 53.5395C34.8832 53.5395 34.0484 54.3826 34.0484 55.3663V59.0199H30.5282V46.3729C30.5282 39.4872 36.1633 33.8663 43.0506 33.8663C49.9379 33.8663 55.5729 39.4872 55.5729 46.3729V59.0199H52.0527V55.5068C52.0527 54.5232 51.2041 53.6801 50.2162 53.6801C49.2283 53.6801 48.3935 54.5232 48.3935 55.5068V84.1735C48.3935 85.1572 49.2422 86.0003 50.2162 86.0003C51.1902 86.0003 52.0527 85.1572 52.0527 84.1735V62.533H57.3956C58.3835 62.533 59.2323 61.6899 59.2323 60.7062V46.3729C59.0931 39.9088 55.1555 34.1474 49.3813 31.7585H49.4092ZM35.7598 23.1866C35.7598 19.2519 39.0017 16.0199 42.9392 16.0199C46.8768 16.0199 50.1188 19.2519 50.1188 23.1866C50.1188 27.1212 46.8768 30.3533 42.9392 30.3533C39.0017 30.3533 35.7598 27.1212 35.7598 23.1866Z" fill="black"/>
<path id="Vector_2" d="M42.9244 67.8721C41.9366 67.8721 41.0879 68.7152 41.0879 69.6989V84.0322C41.0879 85.0159 41.9366 85.859 42.9244 85.859C43.9123 85.859 44.7471 85.0159 44.7471 84.0322V69.6989C44.7471 68.7152 43.8984 67.8721 42.9244 67.8721Z" fill="black"/>
<path id="Vector_3" d="M23.2221 21.3595C29.1354 21.3595 33.9218 16.5817 33.9218 10.6797C33.9218 4.77779 29.1354 0 23.2221 0C17.3087 0 12.5224 4.77779 12.5224 10.6797C12.3833 16.5817 17.3087 21.3595 23.2221 21.3595ZM23.2221 3.51307C27.1597 3.51307 30.4015 6.74511 30.4015 10.6797C30.4015 14.6144 27.1597 17.8464 23.2221 17.8464C19.2845 17.8464 16.0426 14.6144 16.0426 10.6797C16.0426 6.74511 19.2845 3.51307 23.2221 3.51307Z" fill="black"/>
<path id="Vector_4" d="M62.6391 21.3595C68.5525 21.3595 73.3388 16.5817 73.3388 10.6797C73.3388 4.77779 68.5525 0 62.6391 0C56.7258 0 51.9395 4.77779 51.9395 10.6797C51.9395 16.5817 56.7258 21.3595 62.6391 21.3595ZM62.6391 3.51307C66.5767 3.51307 69.8186 6.74511 69.8186 10.6797C69.8186 14.6144 66.5767 17.8464 62.6391 17.8464C58.7015 17.8464 55.4596 14.6144 55.4596 10.6797C55.4596 6.74511 58.7015 3.51307 62.6391 3.51307Z" fill="black"/>
<path id="Vector_5" d="M20.5532 57.1934C19.5653 57.1934 18.7305 58.0365 18.7305 59.0201V84.0332C18.7305 85.0168 19.5792 85.86 20.5532 85.86C21.5271 85.86 22.3898 85.0168 22.3898 84.0332V59.0201C22.2507 58.0365 21.541 57.1934 20.5532 57.1934Z" fill="black"/>
<path id="Vector_6" d="M14.2214 69.6992C13.2335 69.6992 12.3848 70.5423 12.3848 71.526V84.0325C12.3848 85.0162 13.2335 85.8593 14.2214 85.8593C15.2093 85.8593 16.0579 85.0162 16.0579 84.0325V71.526C16.0579 70.5423 15.2093 69.6992 14.2214 69.6992Z" fill="black"/>
<path id="Vector_7" d="M14.2199 21.0781C8.87701 21.0781 4.64723 25.4343 4.64723 30.7742C4.64723 33.7252 6.05247 36.3951 8.16736 38.2219C3.38103 40.4703 0 45.5291 0 51.15V63.6565C0 64.6402 0.848735 65.4834 1.8227 65.4834H6.33074V84.0323C6.33074 85.016 7.17949 85.8592 8.16736 85.8592C9.15524 85.8592 9.99006 85.016 9.99006 84.0323V59.0193C9.99006 58.0356 9.14132 57.1925 8.16736 57.1925C7.1934 57.1925 6.33074 58.0356 6.33074 59.0193V61.8298H3.65932V51.15C3.65932 45.248 8.44565 40.4703 14.359 40.4703C19.7019 40.4703 24.0708 36.1141 24.0708 30.9147C23.9316 25.4343 19.5628 21.0781 14.2199 21.0781ZM14.2199 36.8167C10.8389 36.8167 8.16736 34.1467 8.16736 30.7742C8.16736 27.4016 10.8389 24.7317 14.2199 24.7317C17.6009 24.7317 20.2723 27.4016 20.2723 30.7742C20.2723 34.1467 17.6009 36.8167 14.2199 36.8167Z" fill="black"/>
<path id="Vector_8" d="M77.6936 38.222C79.8084 36.3952 81.2137 33.7253 81.2137 30.7743C81.2137 25.4344 76.8448 21.2188 71.641 21.2188C66.4373 21.2188 62.0684 25.5749 62.0684 30.7743C62.0684 35.9736 66.4373 40.3299 71.641 40.3299C77.5544 40.3299 82.3407 45.1076 82.3407 51.0096V61.8298H79.6693V59.0194C79.6693 58.0357 78.8205 57.1926 77.8327 57.1926C76.8448 57.1926 76.01 58.0357 76.01 59.0194V84.0324C76.01 85.0161 76.8587 85.8593 77.8327 85.8593C78.8066 85.8593 79.6693 85.0161 79.6693 84.0324V65.4834H84.1773C85.1652 65.4834 86 64.6403 86 63.6566V51.1501C86 45.3887 82.619 40.4704 77.6936 38.222ZM65.5886 30.7743C65.5886 27.4017 68.26 24.7318 71.641 24.7318C75.0221 24.7318 77.6936 27.4017 77.6936 30.7743C77.6936 34.1468 75.0221 36.8168 71.641 36.8168C68.26 36.8168 65.5886 34.1468 65.5886 30.7743Z" fill="black"/>
<path id="Vector_9" d="M65.3093 57.1934C64.3214 57.1934 63.4727 58.0365 63.4727 59.0201V84.0332C63.4727 85.0168 64.3214 85.86 65.3093 85.86C66.2972 85.86 67.1459 85.0168 67.1459 84.0332V59.0201C67.1459 58.0365 66.2972 57.1934 65.3093 57.1934Z" fill="black"/>
<path id="Vector_10" d="M71.6411 69.6992C70.6532 69.6992 69.8184 70.5423 69.8184 71.526V84.0325C69.8184 85.0162 70.6671 85.8593 71.6411 85.8593C72.615 85.8593 73.4777 85.0162 73.4777 84.0325V71.526C73.4777 70.5423 72.6289 69.6992 71.6411 69.6992Z" fill="black"/>
</g>
</g>
</svg>
