<svg width="86" height="86" viewBox="0 0 86 86" fill="none" xmlns="http://www.w3.org/2000/svg">
<path d="M24.9097 23.8899C29.1262 21.9226 32.2295 17.5663 32.2295 12.5075C32.2295 5.62184 26.5935 0.000976562 19.7051 0.000976562C12.8167 0.000976562 7.18067 5.62184 7.18067 12.5075C7.18067 17.5663 10.1309 21.9226 14.5005 23.8899C6.19264 25.8572 0 32.4617 0 40.331V55.5076C0 56.4912 0.848873 57.3343 1.82299 57.3343H9.00366V84.1742C9.00366 85.1579 9.85255 86.001 10.8406 86.001C11.8286 86.001 12.6636 85.1579 12.6636 84.1742V50.1676C12.6636 49.184 11.8147 48.3408 10.8406 48.3408C9.86646 48.3408 9.00366 49.184 9.00366 50.1676V53.6807H3.65992V40.1905C3.65992 32.7428 10.8406 26.7003 19.8442 26.7003C28.8479 26.7003 36.0286 32.7428 36.0286 40.1905V53.6807H30.6848V50.1676C30.6848 49.184 29.836 48.3408 28.8618 48.3408C27.8877 48.3408 27.0249 49.184 27.0249 50.1676V84.1742C27.0249 85.1579 27.8738 86.001 28.8618 86.001C29.8499 86.001 30.6848 85.1579 30.6848 84.1742V57.3343H37.8655C38.8535 57.3343 39.6885 56.4912 39.6885 55.5076V40.331C39.4102 32.4617 33.2175 25.8572 24.9097 23.8899ZM10.6875 12.5075C10.6875 7.58917 14.7649 3.51405 19.6911 3.51405C24.6174 3.51405 28.6948 7.58917 28.6948 12.5075C28.6948 17.4258 24.6174 21.501 19.6911 21.501C14.7649 21.501 10.6875 17.4258 10.6875 12.5075Z" fill="black"/>
<path d="M19.5515 62.6738C18.5635 62.6738 17.7285 63.5169 17.7285 64.5006V84.1738C17.7285 85.1575 18.5774 86.0006 19.5515 86.0006C20.5256 86.0006 21.3884 85.1575 21.3884 84.1738V64.5006C21.3884 63.5169 20.5395 62.6738 19.5515 62.6738Z" fill="black"/>
<path d="M21.3899 39.4883H17.8691V43.0014H21.3899V39.4883Z" fill="black"/>
<path d="M64.458 43C52.6294 43 42.916 52.6961 42.916 64.5C42.916 76.3039 52.6294 86 64.458 86C76.2866 86 86 76.3039 86 64.5C86 52.6961 76.2866 43 64.458 43ZM64.458 82.3464C54.6055 82.3464 46.5759 74.3366 46.5759 64.5C46.5759 54.6634 54.6055 46.6536 64.458 46.6536C74.3106 46.6536 82.3401 54.6634 82.3401 64.5C82.3401 74.3366 74.3106 82.3464 64.458 82.3464Z" fill="black"/>
<path d="M67.8411 57.3336C67.9802 57.3336 67.9802 57.4741 67.9802 57.4741C67.9802 58.4577 68.8291 59.3009 69.8172 59.3009C70.8052 59.3009 71.6541 58.4577 71.6541 57.4741C71.6541 55.3662 69.9702 53.6799 67.855 53.6799H66.3103V51.8531C66.3103 50.8695 65.4614 50.0264 64.4873 50.0264C63.5132 50.0264 62.6504 50.8695 62.6504 51.8531V53.6799H61.1057C58.9905 53.6799 57.3066 55.3662 57.3066 57.4741V62.3924C57.3066 64.3597 58.8513 66.046 60.9666 66.1865H62.8035V71.5264H61.2588C61.1197 71.5264 61.1197 71.3859 61.1197 71.3859C61.1197 70.4022 60.2708 69.5591 59.2827 69.5591C58.2947 69.5591 57.4597 70.4022 57.4597 71.3859C57.4597 73.4937 59.1436 75.18 61.2588 75.18H62.8035V77.0068C62.8035 77.9905 63.6524 78.8336 64.6265 78.8336C65.6006 78.8336 66.4634 77.9905 66.4634 77.0068V75.18H68.0081C70.1233 75.18 71.8071 73.4937 71.8071 71.3859V66.4676C71.8071 64.5003 70.2625 62.814 68.1472 62.6734H66.3103V57.3336H67.855H67.8411ZM67.8411 66.327C67.9802 66.327 67.9802 66.4676 67.9802 66.4676V71.3859C67.9802 71.5264 67.8411 71.5264 67.8411 71.5264H66.2964V66.1865L67.8411 66.327ZM62.6365 62.6734H61.0918C60.9526 62.6734 60.9527 62.5329 60.9527 62.5329V57.6146C60.9527 57.4741 61.0918 57.4741 61.0918 57.4741H62.6365V62.6734Z" fill="black"/>
<path d="M51.9326 12.5071H76.9954C77.9834 12.5071 78.8323 11.664 78.8323 10.6803C78.8323 9.69664 77.9834 8.85352 76.9954 8.85352H51.9326C50.9446 8.85352 50.0957 9.69664 50.0957 10.6803C50.0957 11.8045 50.9446 12.5071 51.9326 12.5071Z" fill="black"/>
<path d="M51.9326 23.3284H69.8147C70.8027 23.3284 71.6516 22.4852 71.6516 21.5016C71.6516 20.5179 70.8027 19.6748 69.8147 19.6748H51.9326C50.9446 19.6748 50.0957 20.5179 50.0957 21.5016C50.0957 22.4852 50.9446 23.3284 51.9326 23.3284Z" fill="black"/>
<path d="M51.9326 34.0061H76.9954C77.9834 34.0061 78.8323 33.163 78.8323 32.1793C78.8323 31.1957 77.9834 30.3525 76.9954 30.3525H51.9326C50.9446 30.3525 50.0957 31.1957 50.0957 32.1793C50.0957 33.3035 50.9446 34.0061 51.9326 34.0061Z" fill="black"/>
</svg>
